<svg xmlns="http://www.w3.org/2000/svg" xmlns:xlink="http://www.w3.org/1999/xlink" class="httpgd" width="1041.00" height="625.00" viewBox="0 0 1041.00 625.00">
<defs>
  <style type='text/css'><![CDATA[
    .httpgd line, .httpgd polyline, .httpgd polygon, .httpgd path, .httpgd rect, .httpgd circle {
      fill: none;
      stroke: #000000;
      stroke-linecap: round;
      stroke-linejoin: round;
      stroke-miterlimit: 10.00;
    }
  ]]></style>
<clipPath id="c0"><rect x="0.00" y="0.00" width="1041.00" height="625.00"/></clipPath>
<clipPath id="c1"><rect x="38.97" y="38.97" width="461.58" height="120.90"/></clipPath>
<clipPath id="c2"><rect x="0.00" y="0.00" width="520.50" height="208.33"/></clipPath>
<clipPath id="c3"><rect x="0.00" y="0.00" width="1041.00" height="625.00"/></clipPath>
<clipPath id="c4"><rect x="559.47" y="38.97" width="461.58" height="120.90"/></clipPath>
<clipPath id="c5"><rect x="0.00" y="0.00" width="1041.00" height="625.00"/></clipPath>
<clipPath id="c6"><rect x="520.50" y="0.00" width="520.50" height="208.33"/></clipPath>
<clipPath id="c7"><rect x="559.47" y="38.97" width="461.58" height="120.90"/></clipPath>
<clipPath id="c8"><rect x="520.50" y="0.00" width="520.50" height="208.33"/></clipPath>
<clipPath id="c9"><rect x="38.97" y="247.30" width="461.58" height="120.90"/></clipPath>
<clipPath id="c10"><rect x="0.00" y="208.33" width="520.50" height="208.33"/></clipPath>
<clipPath id="c11"><rect x="0.00" y="0.00" width="1041.00" height="625.00"/></clipPath>
<clipPath id="c12"><rect x="559.47" y="247.30" width="461.58" height="120.90"/></clipPath>
<clipPath id="c13"><rect x="0.00" y="0.00" width="1041.00" height="625.00"/></clipPath>
<clipPath id="c14"><rect x="520.50" y="208.33" width="520.50" height="208.33"/></clipPath>
<clipPath id="c15"><rect x="559.47" y="247.30" width="461.58" height="120.90"/></clipPath>
<clipPath id="c16"><rect x="520.50" y="208.33" width="520.50" height="208.33"/></clipPath>
<clipPath id="c17"><rect x="38.97" y="455.63" width="461.58" height="120.90"/></clipPath>
<clipPath id="c18"><rect x="0.00" y="416.67" width="520.50" height="208.33"/></clipPath>
<clipPath id="c19"><rect x="0.00" y="0.00" width="1041.00" height="625.00"/></clipPath>
<clipPath id="c20"><rect x="559.47" y="455.63" width="461.58" height="120.90"/></clipPath>
<clipPath id="c21"><rect x="0.00" y="0.00" width="1041.00" height="625.00"/></clipPath>
<clipPath id="c22"><rect x="520.50" y="416.67" width="520.50" height="208.33"/></clipPath>
<clipPath id="c23"><rect x="559.47" y="455.63" width="461.58" height="120.90"/></clipPath>
<clipPath id="c24"><rect x="520.50" y="416.67" width="520.50" height="208.33"/></clipPath>
</defs>
<rect width="100%" height="100%" style="stroke: none;fill: #FFFFFF;"/>
<g clip-path="url(#c0)">
</g><g clip-path="url(#c1)">
<polyline points="56.06,142.59 68.63,152.19 81.20,155.39 93.77,155.39 106.34,153.47 118.91,149.63 131.48,143.23 144.05,128.52 156.62,122.76 169.19,109.33 181.76,103.57 194.33,97.82 206.90,93.98 219.47,102.29 232.04,102.93 244.61,111.89 257.18,112.53 269.75,99.73 282.32,85.66 294.89,67.75 307.46,57.52 320.03,60.71 332.60,69.03 345.17,66.47 357.74,72.23 370.32,85.66 382.89,91.42 395.46,92.06 408.03,91.42 420.60,88.86 433.17,87.58 445.74,77.99 458.31,53.68 470.88,43.44 483.45,53.68" style="stroke-width: 0.75;stroke: #FF0000;"/>
</g><g clip-path="url(#c2)">
<g><text x="269.75" y="195.98" text-anchor="middle" style="font-family: Arial;font-size: 7.92px;" textLength="18.29px" lengthAdjust="spacingAndGlyphs">Time</text></g>
<g><text transform="translate(8.55,99.41) rotate(-90.00)" text-anchor="middle" style="font-family: Arial;font-size: 7.92px;" textLength="26.32px" lengthAdjust="spacingAndGlyphs">series1</text></g>
</g><g clip-path="url(#c3)">
<line x1="43.49" y1="159.86" x2="496.02" y2="159.86" style="stroke-width: 0.75;"/>
<line x1="43.49" y1="159.86" x2="43.49" y2="164.61" style="stroke-width: 0.75;"/>
<line x1="118.91" y1="159.86" x2="118.91" y2="164.61" style="stroke-width: 0.75;"/>
<line x1="194.33" y1="159.86" x2="194.33" y2="164.61" style="stroke-width: 0.75;"/>
<line x1="269.75" y1="159.86" x2="269.75" y2="164.61" style="stroke-width: 0.75;"/>
<line x1="345.17" y1="159.86" x2="345.17" y2="164.61" style="stroke-width: 0.75;"/>
<line x1="420.60" y1="159.86" x2="420.60" y2="164.61" style="stroke-width: 0.75;"/>
<line x1="496.02" y1="159.86" x2="496.02" y2="164.61" style="stroke-width: 0.75;"/>
<g><text x="43.49" y="176.97" text-anchor="middle" style="font-family: Arial;font-size: 7.92px;" textLength="24.72px" lengthAdjust="spacingAndGlyphs">2015.0</text></g>
<g><text x="118.91" y="176.97" text-anchor="middle" style="font-family: Arial;font-size: 7.92px;" textLength="24.72px" lengthAdjust="spacingAndGlyphs">2015.5</text></g>
<g><text x="194.33" y="176.97" text-anchor="middle" style="font-family: Arial;font-size: 7.92px;" textLength="24.72px" lengthAdjust="spacingAndGlyphs">2016.0</text></g>
<g><text x="269.75" y="176.97" text-anchor="middle" style="font-family: Arial;font-size: 7.92px;" textLength="24.72px" lengthAdjust="spacingAndGlyphs">2016.5</text></g>
<g><text x="345.17" y="176.97" text-anchor="middle" style="font-family: Arial;font-size: 7.92px;" textLength="24.72px" lengthAdjust="spacingAndGlyphs">2017.0</text></g>
<g><text x="420.60" y="176.97" text-anchor="middle" style="font-family: Arial;font-size: 7.92px;" textLength="24.72px" lengthAdjust="spacingAndGlyphs">2017.5</text></g>
<g><text x="496.02" y="176.97" text-anchor="middle" style="font-family: Arial;font-size: 7.92px;" textLength="24.72px" lengthAdjust="spacingAndGlyphs">2018.0</text></g>
<line x1="38.97" y1="143.23" x2="38.97" y2="47.28" style="stroke-width: 0.75;"/>
<line x1="38.97" y1="143.23" x2="34.21" y2="143.23" style="stroke-width: 0.75;"/>
<line x1="38.97" y1="111.25" x2="34.21" y2="111.25" style="stroke-width: 0.75;"/>
<line x1="38.97" y1="79.27" x2="34.21" y2="79.27" style="stroke-width: 0.75;"/>
<line x1="38.97" y1="47.28" x2="34.21" y2="47.28" style="stroke-width: 0.75;"/>
<g><text transform="translate(27.56,143.23) rotate(-90.00)" text-anchor="middle" style="font-family: Arial;font-size: 7.92px;" textLength="13.56px" lengthAdjust="spacingAndGlyphs">125</text></g>
<g><text transform="translate(27.56,111.25) rotate(-90.00)" text-anchor="middle" style="font-family: Arial;font-size: 7.92px;" textLength="13.56px" lengthAdjust="spacingAndGlyphs">130</text></g>
<g><text transform="translate(27.56,79.27) rotate(-90.00)" text-anchor="middle" style="font-family: Arial;font-size: 7.92px;" textLength="13.56px" lengthAdjust="spacingAndGlyphs">135</text></g>
<g><text transform="translate(27.56,47.28) rotate(-90.00)" text-anchor="middle" style="font-family: Arial;font-size: 7.92px;" textLength="13.56px" lengthAdjust="spacingAndGlyphs">140</text></g>
<polygon points="38.97,159.86 500.54,159.86 500.54,38.97 38.97,38.97" style="stroke-width: 0.75;" />
</g><g clip-path="url(#c4)">
<line x1="576.56" y1="127.53" x2="576.56" y2="43.44" style="stroke-width: 0.75;stroke: #0000FF;"/>
<line x1="605.05" y1="127.53" x2="605.05" y2="51.44" style="stroke-width: 0.75;stroke: #0000FF;"/>
<line x1="633.55" y1="127.53" x2="633.55" y2="65.17" style="stroke-width: 0.75;stroke: #0000FF;"/>
<line x1="662.04" y1="127.53" x2="662.04" y2="79.31" style="stroke-width: 0.75;stroke: #0000FF;"/>
<line x1="690.53" y1="127.53" x2="690.53" y2="91.04" style="stroke-width: 0.75;stroke: #0000FF;"/>
<line x1="719.02" y1="127.53" x2="719.02" y2="100.59" style="stroke-width: 0.75;stroke: #0000FF;"/>
<line x1="747.52" y1="127.53" x2="747.52" y2="108.07" style="stroke-width: 0.75;stroke: #0000FF;"/>
<line x1="776.01" y1="127.53" x2="776.01" y2="112.33" style="stroke-width: 0.75;stroke: #0000FF;"/>
<line x1="804.50" y1="127.53" x2="804.50" y2="113.12" style="stroke-width: 0.75;stroke: #0000FF;"/>
<line x1="832.99" y1="127.53" x2="832.99" y2="112.52" style="stroke-width: 0.75;stroke: #0000FF;"/>
<line x1="861.48" y1="127.53" x2="861.48" y2="112.10" style="stroke-width: 0.75;stroke: #0000FF;"/>
<line x1="889.98" y1="127.53" x2="889.98" y2="113.55" style="stroke-width: 0.75;stroke: #0000FF;"/>
<line x1="918.47" y1="127.53" x2="918.47" y2="116.28" style="stroke-width: 0.75;stroke: #0000FF;"/>
<line x1="946.96" y1="127.53" x2="946.96" y2="120.91" style="stroke-width: 0.75;stroke: #0000FF;"/>
<line x1="975.45" y1="127.53" x2="975.45" y2="129.50" style="stroke-width: 0.75;stroke: #0000FF;"/>
<line x1="1003.95" y1="127.53" x2="1003.95" y2="139.86" style="stroke-width: 0.75;stroke: #0000FF;"/>
</g><g clip-path="url(#c5)">
<line x1="576.56" y1="159.86" x2="986.85" y2="159.86" style="stroke-width: 0.75;"/>
<line x1="576.56" y1="159.86" x2="576.56" y2="164.61" style="stroke-width: 0.75;"/>
<line x1="644.94" y1="159.86" x2="644.94" y2="164.61" style="stroke-width: 0.75;"/>
<line x1="713.32" y1="159.86" x2="713.32" y2="164.61" style="stroke-width: 0.75;"/>
<line x1="781.71" y1="159.86" x2="781.71" y2="164.61" style="stroke-width: 0.75;"/>
<line x1="850.09" y1="159.86" x2="850.09" y2="164.61" style="stroke-width: 0.75;"/>
<line x1="918.47" y1="159.86" x2="918.47" y2="164.61" style="stroke-width: 0.75;"/>
<line x1="986.85" y1="159.86" x2="986.85" y2="164.61" style="stroke-width: 0.75;"/>
<g><text x="576.56" y="176.97" text-anchor="middle" style="font-family: Arial;font-size: 7.92px;" textLength="11.16px" lengthAdjust="spacingAndGlyphs">0.0</text></g>
<g><text x="644.94" y="176.97" text-anchor="middle" style="font-family: Arial;font-size: 7.92px;" textLength="11.16px" lengthAdjust="spacingAndGlyphs">0.2</text></g>
<g><text x="713.32" y="176.97" text-anchor="middle" style="font-family: Arial;font-size: 7.92px;" textLength="11.16px" lengthAdjust="spacingAndGlyphs">0.4</text></g>
<g><text x="781.71" y="176.97" text-anchor="middle" style="font-family: Arial;font-size: 7.92px;" textLength="11.16px" lengthAdjust="spacingAndGlyphs">0.6</text></g>
<g><text x="850.09" y="176.97" text-anchor="middle" style="font-family: Arial;font-size: 7.92px;" textLength="11.16px" lengthAdjust="spacingAndGlyphs">0.8</text></g>
<g><text x="918.47" y="176.97" text-anchor="middle" style="font-family: Arial;font-size: 7.92px;" textLength="11.16px" lengthAdjust="spacingAndGlyphs">1.0</text></g>
<g><text x="986.85" y="176.97" text-anchor="middle" style="font-family: Arial;font-size: 7.92px;" textLength="11.16px" lengthAdjust="spacingAndGlyphs">1.2</text></g>
<line x1="559.47" y1="144.35" x2="559.47" y2="43.44" style="stroke-width: 0.75;"/>
<line x1="559.47" y1="144.35" x2="554.71" y2="144.35" style="stroke-width: 0.75;"/>
<line x1="559.47" y1="127.53" x2="554.71" y2="127.53" style="stroke-width: 0.75;"/>
<line x1="559.47" y1="110.71" x2="554.71" y2="110.71" style="stroke-width: 0.75;"/>
<line x1="559.47" y1="93.89" x2="554.71" y2="93.89" style="stroke-width: 0.75;"/>
<line x1="559.47" y1="77.08" x2="554.71" y2="77.08" style="stroke-width: 0.75;"/>
<line x1="559.47" y1="60.26" x2="554.71" y2="60.26" style="stroke-width: 0.75;"/>
<line x1="559.47" y1="43.44" x2="554.71" y2="43.44" style="stroke-width: 0.75;"/>
<g><text transform="translate(548.06,144.35) rotate(-90.00)" text-anchor="middle" style="font-family: Arial;font-size: 7.92px;" textLength="13.71px" lengthAdjust="spacingAndGlyphs">-0.2</text></g>
<g><text transform="translate(548.06,110.71) rotate(-90.00)" text-anchor="middle" style="font-family: Arial;font-size: 7.92px;" textLength="11.16px" lengthAdjust="spacingAndGlyphs">0.2</text></g>
<g><text transform="translate(548.06,77.08) rotate(-90.00)" text-anchor="middle" style="font-family: Arial;font-size: 7.92px;" textLength="11.16px" lengthAdjust="spacingAndGlyphs">0.6</text></g>
<g><text transform="translate(548.06,43.44) rotate(-90.00)" text-anchor="middle" style="font-family: Arial;font-size: 7.92px;" textLength="11.16px" lengthAdjust="spacingAndGlyphs">1.0</text></g>
<polygon points="559.47,159.86 1021.04,159.86 1021.04,38.97 559.47,38.97" style="stroke-width: 0.75;" />
</g><g clip-path="url(#c6)">
<g><text x="790.25" y="195.98" text-anchor="middle" style="font-family: Arial;font-size: 7.92px;" textLength="13.44px" lengthAdjust="spacingAndGlyphs">Lag</text></g>
<g><text transform="translate(529.05,99.41) rotate(-90.00)" text-anchor="middle" style="font-family: Arial;font-size: 7.92px;" textLength="14.16px" lengthAdjust="spacingAndGlyphs">ACF</text></g>
</g><g clip-path="url(#c7)">
<line x1="559.47" y1="127.53" x2="1021.04" y2="127.53" style="stroke-width: 0.75;"/>
<line x1="559.47" y1="99.67" x2="1021.04" y2="99.67" style="stroke-width: 0.75;stroke: #0000FF; stroke-dasharray: 4.00, 4.00;"/>
<line x1="559.47" y1="155.39" x2="1021.04" y2="155.39" style="stroke-width: 0.75;stroke: #0000FF; stroke-dasharray: 4.00, 4.00;"/>
</g><g clip-path="url(#c8)">
<g><text x="790.25" y="19.96" text-anchor="middle" style="font-family: Arial;font-size: 9.50px;" textLength="66.66px" lengthAdjust="spacingAndGlyphs">Series  series1</text></g>
</g><g clip-path="url(#c9)">
<polyline points="56.06,363.72 68.63,362.27 81.20,356.50 93.77,347.83 106.34,343.50 118.91,340.61 131.48,337.00 144.05,332.66 156.62,330.50 169.19,326.89 181.76,328.33 194.33,325.44 206.90,319.66 219.47,316.78 232.04,311.72 244.61,308.83 257.18,313.89 269.75,314.61 282.32,311.72 294.89,307.39 307.46,306.66 320.03,305.22 332.60,301.61 345.17,300.16 357.74,295.11 370.32,283.55 382.89,282.11 395.46,274.17 408.03,265.50 420.60,260.44 433.17,263.33 445.74,267.67 458.31,263.33 470.88,260.44 483.45,251.78" style="stroke-width: 0.75;stroke: #FF0000;"/>
</g><g clip-path="url(#c10)">
<g><text x="269.75" y="404.31" text-anchor="middle" style="font-family: Arial;font-size: 7.92px;" textLength="18.29px" lengthAdjust="spacingAndGlyphs">Time</text></g>
<g><text transform="translate(8.55,307.75) rotate(-90.00)" text-anchor="middle" style="font-family: Arial;font-size: 7.92px;" textLength="26.32px" lengthAdjust="spacingAndGlyphs">series2</text></g>
</g><g clip-path="url(#c11)">
<line x1="43.49" y1="368.20" x2="496.02" y2="368.20" style="stroke-width: 0.75;"/>
<line x1="43.49" y1="368.20" x2="43.49" y2="372.95" style="stroke-width: 0.75;"/>
<line x1="118.91" y1="368.20" x2="118.91" y2="372.95" style="stroke-width: 0.75;"/>
<line x1="194.33" y1="368.20" x2="194.33" y2="372.95" style="stroke-width: 0.75;"/>
<line x1="269.75" y1="368.20" x2="269.75" y2="372.95" style="stroke-width: 0.75;"/>
<line x1="345.17" y1="368.20" x2="345.17" y2="372.95" style="stroke-width: 0.75;"/>
<line x1="420.60" y1="368.20" x2="420.60" y2="372.95" style="stroke-width: 0.75;"/>
<line x1="496.02" y1="368.20" x2="496.02" y2="372.95" style="stroke-width: 0.75;"/>
<g><text x="43.49" y="385.30" text-anchor="middle" style="font-family: Arial;font-size: 7.92px;" textLength="24.72px" lengthAdjust="spacingAndGlyphs">2015.0</text></g>
<g><text x="118.91" y="385.30" text-anchor="middle" style="font-family: Arial;font-size: 7.92px;" textLength="24.72px" lengthAdjust="spacingAndGlyphs">2015.5</text></g>
<g><text x="194.33" y="385.30" text-anchor="middle" style="font-family: Arial;font-size: 7.92px;" textLength="24.72px" lengthAdjust="spacingAndGlyphs">2016.0</text></g>
<g><text x="269.75" y="385.30" text-anchor="middle" style="font-family: Arial;font-size: 7.92px;" textLength="24.72px" lengthAdjust="spacingAndGlyphs">2016.5</text></g>
<g><text x="345.17" y="385.30" text-anchor="middle" style="font-family: Arial;font-size: 7.92px;" textLength="24.72px" lengthAdjust="spacingAndGlyphs">2017.0</text></g>
<g><text x="420.60" y="385.30" text-anchor="middle" style="font-family: Arial;font-size: 7.92px;" textLength="24.72px" lengthAdjust="spacingAndGlyphs">2017.5</text></g>
<g><text x="496.02" y="385.30" text-anchor="middle" style="font-family: Arial;font-size: 7.92px;" textLength="24.72px" lengthAdjust="spacingAndGlyphs">2018.0</text></g>
<line x1="38.97" y1="367.33" x2="38.97" y2="259.00" style="stroke-width: 0.75;"/>
<line x1="38.97" y1="367.33" x2="34.21" y2="367.33" style="stroke-width: 0.75;"/>
<line x1="38.97" y1="331.22" x2="34.21" y2="331.22" style="stroke-width: 0.75;"/>
<line x1="38.97" y1="295.11" x2="34.21" y2="295.11" style="stroke-width: 0.75;"/>
<line x1="38.97" y1="259.00" x2="34.21" y2="259.00" style="stroke-width: 0.75;"/>
<g><text transform="translate(27.56,367.33) rotate(-90.00)" text-anchor="middle" style="font-family: Arial;font-size: 7.92px;" textLength="13.56px" lengthAdjust="spacingAndGlyphs">115</text></g>
<g><text transform="translate(27.56,331.22) rotate(-90.00)" text-anchor="middle" style="font-family: Arial;font-size: 7.92px;" textLength="13.56px" lengthAdjust="spacingAndGlyphs">120</text></g>
<g><text transform="translate(27.56,295.11) rotate(-90.00)" text-anchor="middle" style="font-family: Arial;font-size: 7.92px;" textLength="13.56px" lengthAdjust="spacingAndGlyphs">125</text></g>
<g><text transform="translate(27.56,259.00) rotate(-90.00)" text-anchor="middle" style="font-family: Arial;font-size: 7.92px;" textLength="13.56px" lengthAdjust="spacingAndGlyphs">130</text></g>
<polygon points="38.97,368.20 500.54,368.20 500.54,247.30 38.97,247.30" style="stroke-width: 0.75;" />
</g><g clip-path="url(#c12)">
<line x1="576.56" y1="335.86" x2="576.56" y2="251.78" style="stroke-width: 0.75;stroke: #0000FF;"/>
<line x1="605.05" y1="335.86" x2="605.05" y2="260.65" style="stroke-width: 0.75;stroke: #0000FF;"/>
<line x1="633.55" y1="335.86" x2="633.55" y2="269.21" style="stroke-width: 0.75;stroke: #0000FF;"/>
<line x1="662.04" y1="335.86" x2="662.04" y2="277.26" style="stroke-width: 0.75;stroke: #0000FF;"/>
<line x1="690.53" y1="335.86" x2="690.53" y2="284.09" style="stroke-width: 0.75;stroke: #0000FF;"/>
<line x1="719.02" y1="335.86" x2="719.02" y2="291.55" style="stroke-width: 0.75;stroke: #0000FF;"/>
<line x1="747.52" y1="335.86" x2="747.52" y2="299.74" style="stroke-width: 0.75;stroke: #0000FF;"/>
<line x1="776.01" y1="335.86" x2="776.01" y2="307.42" style="stroke-width: 0.75;stroke: #0000FF;"/>
<line x1="804.50" y1="335.86" x2="804.50" y2="313.97" style="stroke-width: 0.75;stroke: #0000FF;"/>
<line x1="832.99" y1="335.86" x2="832.99" y2="319.55" style="stroke-width: 0.75;stroke: #0000FF;"/>
<line x1="861.48" y1="335.86" x2="861.48" y2="325.00" style="stroke-width: 0.75;stroke: #0000FF;"/>
<line x1="889.98" y1="335.86" x2="889.98" y2="329.70" style="stroke-width: 0.75;stroke: #0000FF;"/>
<line x1="918.47" y1="335.86" x2="918.47" y2="333.69" style="stroke-width: 0.75;stroke: #0000FF;"/>
<line x1="946.96" y1="335.86" x2="946.96" y2="336.99" style="stroke-width: 0.75;stroke: #0000FF;"/>
<line x1="975.45" y1="335.86" x2="975.45" y2="339.79" style="stroke-width: 0.75;stroke: #0000FF;"/>
<line x1="1003.95" y1="335.86" x2="1003.95" y2="342.13" style="stroke-width: 0.75;stroke: #0000FF;"/>
</g><g clip-path="url(#c13)">
<line x1="576.56" y1="368.20" x2="986.85" y2="368.20" style="stroke-width: 0.75;"/>
<line x1="576.56" y1="368.20" x2="576.56" y2="372.95" style="stroke-width: 0.75;"/>
<line x1="644.94" y1="368.20" x2="644.94" y2="372.95" style="stroke-width: 0.75;"/>
<line x1="713.32" y1="368.20" x2="713.32" y2="372.95" style="stroke-width: 0.75;"/>
<line x1="781.71" y1="368.20" x2="781.71" y2="372.95" style="stroke-width: 0.75;"/>
<line x1="850.09" y1="368.20" x2="850.09" y2="372.95" style="stroke-width: 0.75;"/>
<line x1="918.47" y1="368.20" x2="918.47" y2="372.95" style="stroke-width: 0.75;"/>
<line x1="986.85" y1="368.20" x2="986.85" y2="372.95" style="stroke-width: 0.75;"/>
<g><text x="576.56" y="385.30" text-anchor="middle" style="font-family: Arial;font-size: 7.92px;" textLength="11.16px" lengthAdjust="spacingAndGlyphs">0.0</text></g>
<g><text x="644.94" y="385.30" text-anchor="middle" style="font-family: Arial;font-size: 7.92px;" textLength="11.16px" lengthAdjust="spacingAndGlyphs">0.2</text></g>
<g><text x="713.32" y="385.30" text-anchor="middle" style="font-family: Arial;font-size: 7.92px;" textLength="11.16px" lengthAdjust="spacingAndGlyphs">0.4</text></g>
<g><text x="781.71" y="385.30" text-anchor="middle" style="font-family: Arial;font-size: 7.92px;" textLength="11.16px" lengthAdjust="spacingAndGlyphs">0.6</text></g>
<g><text x="850.09" y="385.30" text-anchor="middle" style="font-family: Arial;font-size: 7.92px;" textLength="11.16px" lengthAdjust="spacingAndGlyphs">0.8</text></g>
<g><text x="918.47" y="385.30" text-anchor="middle" style="font-family: Arial;font-size: 7.92px;" textLength="11.16px" lengthAdjust="spacingAndGlyphs">1.0</text></g>
<g><text x="986.85" y="385.30" text-anchor="middle" style="font-family: Arial;font-size: 7.92px;" textLength="11.16px" lengthAdjust="spacingAndGlyphs">1.2</text></g>
<line x1="559.47" y1="352.68" x2="559.47" y2="251.78" style="stroke-width: 0.75;"/>
<line x1="559.47" y1="352.68" x2="554.71" y2="352.68" style="stroke-width: 0.75;"/>
<line x1="559.47" y1="335.86" x2="554.71" y2="335.86" style="stroke-width: 0.75;"/>
<line x1="559.47" y1="319.04" x2="554.71" y2="319.04" style="stroke-width: 0.75;"/>
<line x1="559.47" y1="302.23" x2="554.71" y2="302.23" style="stroke-width: 0.75;"/>
<line x1="559.47" y1="285.41" x2="554.71" y2="285.41" style="stroke-width: 0.75;"/>
<line x1="559.47" y1="268.59" x2="554.71" y2="268.59" style="stroke-width: 0.75;"/>
<line x1="559.47" y1="251.78" x2="554.71" y2="251.78" style="stroke-width: 0.75;"/>
<g><text transform="translate(548.06,352.68) rotate(-90.00)" text-anchor="middle" style="font-family: Arial;font-size: 7.92px;" textLength="13.71px" lengthAdjust="spacingAndGlyphs">-0.2</text></g>
<g><text transform="translate(548.06,319.04) rotate(-90.00)" text-anchor="middle" style="font-family: Arial;font-size: 7.92px;" textLength="11.16px" lengthAdjust="spacingAndGlyphs">0.2</text></g>
<g><text transform="translate(548.06,285.41) rotate(-90.00)" text-anchor="middle" style="font-family: Arial;font-size: 7.92px;" textLength="11.16px" lengthAdjust="spacingAndGlyphs">0.6</text></g>
<g><text transform="translate(548.06,251.78) rotate(-90.00)" text-anchor="middle" style="font-family: Arial;font-size: 7.92px;" textLength="11.16px" lengthAdjust="spacingAndGlyphs">1.0</text></g>
<polygon points="559.47,368.20 1021.04,368.20 1021.04,247.30 559.47,247.30" style="stroke-width: 0.75;" />
</g><g clip-path="url(#c14)">
<g><text x="790.25" y="404.31" text-anchor="middle" style="font-family: Arial;font-size: 7.92px;" textLength="13.44px" lengthAdjust="spacingAndGlyphs">Lag</text></g>
<g><text transform="translate(529.05,307.75) rotate(-90.00)" text-anchor="middle" style="font-family: Arial;font-size: 7.92px;" textLength="14.16px" lengthAdjust="spacingAndGlyphs">ACF</text></g>
</g><g clip-path="url(#c15)">
<line x1="559.47" y1="335.86" x2="1021.04" y2="335.86" style="stroke-width: 0.75;"/>
<line x1="559.47" y1="308.01" x2="1021.04" y2="308.01" style="stroke-width: 0.75;stroke: #0000FF; stroke-dasharray: 4.00, 4.00;"/>
<line x1="559.47" y1="363.72" x2="1021.04" y2="363.72" style="stroke-width: 0.75;stroke: #0000FF; stroke-dasharray: 4.00, 4.00;"/>
</g><g clip-path="url(#c16)">
<g><text x="790.25" y="228.29" text-anchor="middle" style="font-family: Arial;font-size: 9.50px;" textLength="66.66px" lengthAdjust="spacingAndGlyphs">Series  series2</text></g>
</g><g clip-path="url(#c17)">
<polyline points="56.06,572.05 68.63,572.05 81.20,570.42 93.77,569.60 106.34,564.70 118.91,561.43 131.48,553.26 144.05,545.91 156.62,544.27 169.19,544.27 181.76,541.82 194.33,538.55 206.90,536.92 219.47,535.28 232.04,533.65 244.61,528.75 257.18,527.11 269.75,521.39 282.32,515.67 294.89,509.14 307.46,505.87 320.03,504.23 332.60,498.51 345.17,493.61 357.74,490.34 370.32,489.53 382.89,485.44 395.46,482.17 408.03,479.72 420.60,479.72 433.17,478.09 445.74,476.45 458.31,473.18 470.88,465.83 483.45,460.11" style="stroke-width: 0.75;stroke: #FF0000;"/>
</g><g clip-path="url(#c18)">
<g><text x="269.75" y="612.64" text-anchor="middle" style="font-family: Arial;font-size: 7.92px;" textLength="18.29px" lengthAdjust="spacingAndGlyphs">Time</text></g>
<g><text transform="translate(8.55,516.08) rotate(-90.00)" text-anchor="middle" style="font-family: Arial;font-size: 7.92px;" textLength="26.32px" lengthAdjust="spacingAndGlyphs">series3</text></g>
</g><g clip-path="url(#c19)">
<line x1="43.49" y1="576.53" x2="496.02" y2="576.53" style="stroke-width: 0.75;"/>
<line x1="43.49" y1="576.53" x2="43.49" y2="581.28" style="stroke-width: 0.75;"/>
<line x1="118.91" y1="576.53" x2="118.91" y2="581.28" style="stroke-width: 0.75;"/>
<line x1="194.33" y1="576.53" x2="194.33" y2="581.28" style="stroke-width: 0.75;"/>
<line x1="269.75" y1="576.53" x2="269.75" y2="581.28" style="stroke-width: 0.75;"/>
<line x1="345.17" y1="576.53" x2="345.17" y2="581.28" style="stroke-width: 0.75;"/>
<line x1="420.60" y1="576.53" x2="420.60" y2="581.28" style="stroke-width: 0.75;"/>
<line x1="496.02" y1="576.53" x2="496.02" y2="581.28" style="stroke-width: 0.75;"/>
<g><text x="43.49" y="593.64" text-anchor="middle" style="font-family: Arial;font-size: 7.92px;" textLength="24.72px" lengthAdjust="spacingAndGlyphs">2015.0</text></g>
<g><text x="118.91" y="593.64" text-anchor="middle" style="font-family: Arial;font-size: 7.92px;" textLength="24.72px" lengthAdjust="spacingAndGlyphs">2015.5</text></g>
<g><text x="194.33" y="593.64" text-anchor="middle" style="font-family: Arial;font-size: 7.92px;" textLength="24.72px" lengthAdjust="spacingAndGlyphs">2016.0</text></g>
<g><text x="269.75" y="593.64" text-anchor="middle" style="font-family: Arial;font-size: 7.92px;" textLength="24.72px" lengthAdjust="spacingAndGlyphs">2016.5</text></g>
<g><text x="345.17" y="593.64" text-anchor="middle" style="font-family: Arial;font-size: 7.92px;" textLength="24.72px" lengthAdjust="spacingAndGlyphs">2017.0</text></g>
<g><text x="420.60" y="593.64" text-anchor="middle" style="font-family: Arial;font-size: 7.92px;" textLength="24.72px" lengthAdjust="spacingAndGlyphs">2017.5</text></g>
<g><text x="496.02" y="593.64" text-anchor="middle" style="font-family: Arial;font-size: 7.92px;" textLength="24.72px" lengthAdjust="spacingAndGlyphs">2018.0</text></g>
<line x1="38.97" y1="570.42" x2="38.97" y2="456.03" style="stroke-width: 0.75;"/>
<line x1="38.97" y1="570.42" x2="34.21" y2="570.42" style="stroke-width: 0.75;"/>
<line x1="38.97" y1="554.08" x2="34.21" y2="554.08" style="stroke-width: 0.75;"/>
<line x1="38.97" y1="537.73" x2="34.21" y2="537.73" style="stroke-width: 0.75;"/>
<line x1="38.97" y1="521.39" x2="34.21" y2="521.39" style="stroke-width: 0.75;"/>
<line x1="38.97" y1="505.05" x2="34.21" y2="505.05" style="stroke-width: 0.75;"/>
<line x1="38.97" y1="488.71" x2="34.21" y2="488.71" style="stroke-width: 0.75;"/>
<line x1="38.97" y1="472.37" x2="34.21" y2="472.37" style="stroke-width: 0.75;"/>
<line x1="38.97" y1="456.03" x2="34.21" y2="456.03" style="stroke-width: 0.75;"/>
<g><text transform="translate(27.56,570.42) rotate(-90.00)" text-anchor="middle" style="font-family: Arial;font-size: 7.92px;" textLength="13.56px" lengthAdjust="spacingAndGlyphs">114</text></g>
<g><text transform="translate(27.56,537.73) rotate(-90.00)" text-anchor="middle" style="font-family: Arial;font-size: 7.92px;" textLength="13.56px" lengthAdjust="spacingAndGlyphs">118</text></g>
<g><text transform="translate(27.56,505.05) rotate(-90.00)" text-anchor="middle" style="font-family: Arial;font-size: 7.92px;" textLength="13.56px" lengthAdjust="spacingAndGlyphs">122</text></g>
<g><text transform="translate(27.56,472.37) rotate(-90.00)" text-anchor="middle" style="font-family: Arial;font-size: 7.92px;" textLength="13.56px" lengthAdjust="spacingAndGlyphs">126</text></g>
<polygon points="38.97,576.53 500.54,576.53 500.54,455.63 38.97,455.63" style="stroke-width: 0.75;" />
</g><g clip-path="url(#c20)">
<line x1="576.56" y1="544.20" x2="576.56" y2="460.11" style="stroke-width: 0.75;stroke: #0000FF;"/>
<line x1="605.05" y1="544.20" x2="605.05" y2="467.19" style="stroke-width: 0.75;stroke: #0000FF;"/>
<line x1="633.55" y1="544.20" x2="633.55" y2="474.45" style="stroke-width: 0.75;stroke: #0000FF;"/>
<line x1="662.04" y1="544.20" x2="662.04" y2="481.32" style="stroke-width: 0.75;stroke: #0000FF;"/>
<line x1="690.53" y1="544.20" x2="690.53" y2="488.33" style="stroke-width: 0.75;stroke: #0000FF;"/>
<line x1="719.02" y1="544.20" x2="719.02" y2="495.25" style="stroke-width: 0.75;stroke: #0000FF;"/>
<line x1="747.52" y1="544.20" x2="747.52" y2="502.21" style="stroke-width: 0.75;stroke: #0000FF;"/>
<line x1="776.01" y1="544.20" x2="776.01" y2="508.80" style="stroke-width: 0.75;stroke: #0000FF;"/>
<line x1="804.50" y1="544.20" x2="804.50" y2="514.84" style="stroke-width: 0.75;stroke: #0000FF;"/>
<line x1="832.99" y1="544.20" x2="832.99" y2="520.87" style="stroke-width: 0.75;stroke: #0000FF;"/>
<line x1="861.48" y1="544.20" x2="861.48" y2="526.94" style="stroke-width: 0.75;stroke: #0000FF;"/>
<line x1="889.98" y1="544.20" x2="889.98" y2="533.16" style="stroke-width: 0.75;stroke: #0000FF;"/>
<line x1="918.47" y1="544.20" x2="918.47" y2="539.25" style="stroke-width: 0.75;stroke: #0000FF;"/>
<line x1="946.96" y1="544.20" x2="946.96" y2="545.13" style="stroke-width: 0.75;stroke: #0000FF;"/>
<line x1="975.45" y1="544.20" x2="975.45" y2="550.67" style="stroke-width: 0.75;stroke: #0000FF;"/>
<line x1="1003.95" y1="544.20" x2="1003.95" y2="556.31" style="stroke-width: 0.75;stroke: #0000FF;"/>
</g><g clip-path="url(#c21)">
<line x1="576.56" y1="576.53" x2="986.85" y2="576.53" style="stroke-width: 0.75;"/>
<line x1="576.56" y1="576.53" x2="576.56" y2="581.28" style="stroke-width: 0.75;"/>
<line x1="644.94" y1="576.53" x2="644.94" y2="581.28" style="stroke-width: 0.75;"/>
<line x1="713.32" y1="576.53" x2="713.32" y2="581.28" style="stroke-width: 0.75;"/>
<line x1="781.71" y1="576.53" x2="781.71" y2="581.28" style="stroke-width: 0.75;"/>
<line x1="850.09" y1="576.53" x2="850.09" y2="581.28" style="stroke-width: 0.75;"/>
<line x1="918.47" y1="576.53" x2="918.47" y2="581.28" style="stroke-width: 0.75;"/>
<line x1="986.85" y1="576.53" x2="986.85" y2="581.28" style="stroke-width: 0.75;"/>
<g><text x="576.56" y="593.64" text-anchor="middle" style="font-family: Arial;font-size: 7.92px;" textLength="11.16px" lengthAdjust="spacingAndGlyphs">0.0</text></g>
<g><text x="644.94" y="593.64" text-anchor="middle" style="font-family: Arial;font-size: 7.92px;" textLength="11.16px" lengthAdjust="spacingAndGlyphs">0.2</text></g>
<g><text x="713.32" y="593.64" text-anchor="middle" style="font-family: Arial;font-size: 7.92px;" textLength="11.16px" lengthAdjust="spacingAndGlyphs">0.4</text></g>
<g><text x="781.71" y="593.64" text-anchor="middle" style="font-family: Arial;font-size: 7.92px;" textLength="11.16px" lengthAdjust="spacingAndGlyphs">0.6</text></g>
<g><text x="850.09" y="593.64" text-anchor="middle" style="font-family: Arial;font-size: 7.92px;" textLength="11.16px" lengthAdjust="spacingAndGlyphs">0.8</text></g>
<g><text x="918.47" y="593.64" text-anchor="middle" style="font-family: Arial;font-size: 7.92px;" textLength="11.16px" lengthAdjust="spacingAndGlyphs">1.0</text></g>
<g><text x="986.85" y="593.64" text-anchor="middle" style="font-family: Arial;font-size: 7.92px;" textLength="11.16px" lengthAdjust="spacingAndGlyphs">1.2</text></g>
<line x1="559.47" y1="561.01" x2="559.47" y2="460.11" style="stroke-width: 0.75;"/>
<line x1="559.47" y1="561.01" x2="554.71" y2="561.01" style="stroke-width: 0.75;"/>
<line x1="559.47" y1="544.20" x2="554.71" y2="544.20" style="stroke-width: 0.75;"/>
<line x1="559.47" y1="527.38" x2="554.71" y2="527.38" style="stroke-width: 0.75;"/>
<line x1="559.47" y1="510.56" x2="554.71" y2="510.56" style="stroke-width: 0.75;"/>
<line x1="559.47" y1="493.74" x2="554.71" y2="493.74" style="stroke-width: 0.75;"/>
<line x1="559.47" y1="476.93" x2="554.71" y2="476.93" style="stroke-width: 0.75;"/>
<line x1="559.47" y1="460.11" x2="554.71" y2="460.11" style="stroke-width: 0.75;"/>
<g><text transform="translate(548.06,561.01) rotate(-90.00)" text-anchor="middle" style="font-family: Arial;font-size: 7.92px;" textLength="13.71px" lengthAdjust="spacingAndGlyphs">-0.2</text></g>
<g><text transform="translate(548.06,527.38) rotate(-90.00)" text-anchor="middle" style="font-family: Arial;font-size: 7.92px;" textLength="11.16px" lengthAdjust="spacingAndGlyphs">0.2</text></g>
<g><text transform="translate(548.06,493.74) rotate(-90.00)" text-anchor="middle" style="font-family: Arial;font-size: 7.92px;" textLength="11.16px" lengthAdjust="spacingAndGlyphs">0.6</text></g>
<g><text transform="translate(548.06,460.11) rotate(-90.00)" text-anchor="middle" style="font-family: Arial;font-size: 7.92px;" textLength="11.16px" lengthAdjust="spacingAndGlyphs">1.0</text></g>
<polygon points="559.47,576.53 1021.04,576.53 1021.04,455.63 559.47,455.63" style="stroke-width: 0.75;" />
</g><g clip-path="url(#c22)">
<g><text x="790.25" y="612.64" text-anchor="middle" style="font-family: Arial;font-size: 7.92px;" textLength="13.44px" lengthAdjust="spacingAndGlyphs">Lag</text></g>
<g><text transform="translate(529.05,516.08) rotate(-90.00)" text-anchor="middle" style="font-family: Arial;font-size: 7.92px;" textLength="14.16px" lengthAdjust="spacingAndGlyphs">ACF</text></g>
</g><g clip-path="url(#c23)">
<line x1="559.47" y1="544.20" x2="1021.04" y2="544.20" style="stroke-width: 0.75;"/>
<line x1="559.47" y1="516.34" x2="1021.04" y2="516.34" style="stroke-width: 0.75;stroke: #0000FF; stroke-dasharray: 4.00, 4.00;"/>
<line x1="559.47" y1="572.05" x2="1021.04" y2="572.05" style="stroke-width: 0.75;stroke: #0000FF; stroke-dasharray: 4.00, 4.00;"/>
</g><g clip-path="url(#c24)">
<g><text x="790.25" y="436.63" text-anchor="middle" style="font-family: Arial;font-size: 9.50px;" textLength="66.66px" lengthAdjust="spacingAndGlyphs">Series  series3</text></g>
</g>
</svg>