<svg xmlns="http://www.w3.org/2000/svg" xmlns:xlink="http://www.w3.org/1999/xlink" class="httpgd" width="1409.00" height="1035.00" viewBox="0 0 1127.20 828.00">
<defs>
  <style type='text/css'><![CDATA[
    .httpgd line, .httpgd polyline, .httpgd polygon, .httpgd path, .httpgd rect, .httpgd circle {
      fill: none;
      stroke: #000000;
      stroke-linecap: round;
      stroke-linejoin: round;
      stroke-miterlimit: 10.00;
    }
  ]]></style>
<clipPath id="c0"><rect x="0.00" y="0.00" width="1127.20" height="828.00"/></clipPath>
<clipPath id="c1"><rect x="38.97" y="38.97" width="504.68" height="188.56"/></clipPath>
<clipPath id="c2"><rect x="0.00" y="0.00" width="563.60" height="276.00"/></clipPath>
<clipPath id="c3"><rect x="0.00" y="0.00" width="1127.20" height="828.00"/></clipPath>
<clipPath id="c4"><rect x="602.57" y="38.97" width="504.68" height="188.56"/></clipPath>
<clipPath id="c5"><rect x="0.00" y="0.00" width="1127.20" height="828.00"/></clipPath>
<clipPath id="c6"><rect x="563.60" y="0.00" width="563.60" height="276.00"/></clipPath>
<clipPath id="c7"><rect x="602.57" y="38.97" width="504.68" height="188.56"/></clipPath>
<clipPath id="c8"><rect x="563.60" y="0.00" width="563.60" height="276.00"/></clipPath>
<clipPath id="c9"><rect x="38.97" y="314.97" width="504.68" height="188.56"/></clipPath>
<clipPath id="c10"><rect x="0.00" y="276.00" width="563.60" height="276.00"/></clipPath>
<clipPath id="c11"><rect x="0.00" y="0.00" width="1127.20" height="828.00"/></clipPath>
<clipPath id="c12"><rect x="602.57" y="314.97" width="504.68" height="188.56"/></clipPath>
<clipPath id="c13"><rect x="0.00" y="0.00" width="1127.20" height="828.00"/></clipPath>
<clipPath id="c14"><rect x="563.60" y="276.00" width="563.60" height="276.00"/></clipPath>
<clipPath id="c15"><rect x="602.57" y="314.97" width="504.68" height="188.56"/></clipPath>
<clipPath id="c16"><rect x="563.60" y="276.00" width="563.60" height="276.00"/></clipPath>
<clipPath id="c17"><rect x="38.97" y="590.97" width="504.68" height="188.56"/></clipPath>
<clipPath id="c18"><rect x="0.00" y="552.00" width="563.60" height="276.00"/></clipPath>
<clipPath id="c19"><rect x="0.00" y="0.00" width="1127.20" height="828.00"/></clipPath>
<clipPath id="c20"><rect x="602.57" y="590.97" width="504.68" height="188.56"/></clipPath>
<clipPath id="c21"><rect x="0.00" y="0.00" width="1127.20" height="828.00"/></clipPath>
<clipPath id="c22"><rect x="563.60" y="552.00" width="563.60" height="276.00"/></clipPath>
<clipPath id="c23"><rect x="602.57" y="590.97" width="504.68" height="188.56"/></clipPath>
<clipPath id="c24"><rect x="563.60" y="552.00" width="563.60" height="276.00"/></clipPath>
</defs>
<rect width="100%" height="100%" style="stroke: none;fill: #FFFFFF;"/>
<g clip-path="url(#c0)">
</g><g clip-path="url(#c1)">
<polyline points="57.66,200.59 71.01,215.56 84.36,220.55 97.71,220.55 111.06,217.55 124.41,211.57 137.77,201.59 151.12,178.64 164.47,169.66 177.82,148.71 191.17,139.73 204.52,130.75 217.87,124.77 231.22,137.74 244.57,138.74 257.93,152.70 271.28,153.70 284.63,133.75 297.98,111.80 311.33,83.86 324.68,67.90 338.03,72.89 351.38,85.86 364.74,81.87 378.09,90.85 391.44,111.80 404.79,120.78 418.14,121.77 431.49,120.78 444.84,116.79 458.19,114.79 471.55,99.83 484.90,61.91 498.25,45.95 511.60,61.91 524.95,200.59" style="stroke-width: 0.75;stroke: #FF0000;"/>
</g><g clip-path="url(#c2)">
<g><text x="291.30" y="263.64" text-anchor="middle" style="font-family: Arial;font-size: 7.92px;" textLength="18.29px" lengthAdjust="spacingAndGlyphs">Time</text></g>
<g><text transform="translate(8.55,133.25) rotate(-90.00)" text-anchor="middle" style="font-family: Arial;font-size: 7.92px;" textLength="26.32px" lengthAdjust="spacingAndGlyphs">series1</text></g>
</g><g clip-path="url(#c3)">
<line x1="44.31" y1="227.53" x2="524.95" y2="227.53" style="stroke-width: 0.75;"/>
<line x1="44.31" y1="227.53" x2="44.31" y2="232.28" style="stroke-width: 0.75;"/>
<line x1="124.41" y1="227.53" x2="124.41" y2="232.28" style="stroke-width: 0.75;"/>
<line x1="204.52" y1="227.53" x2="204.52" y2="232.28" style="stroke-width: 0.75;"/>
<line x1="284.63" y1="227.53" x2="284.63" y2="232.28" style="stroke-width: 0.75;"/>
<line x1="364.74" y1="227.53" x2="364.74" y2="232.28" style="stroke-width: 0.75;"/>
<line x1="444.84" y1="227.53" x2="444.84" y2="232.28" style="stroke-width: 0.75;"/>
<line x1="524.95" y1="227.53" x2="524.95" y2="232.28" style="stroke-width: 0.75;"/>
<g><text x="44.31" y="244.64" text-anchor="middle" style="font-family: Arial;font-size: 7.92px;" textLength="24.72px" lengthAdjust="spacingAndGlyphs">2015.0</text></g>
<g><text x="124.41" y="244.64" text-anchor="middle" style="font-family: Arial;font-size: 7.92px;" textLength="24.72px" lengthAdjust="spacingAndGlyphs">2015.5</text></g>
<g><text x="204.52" y="244.64" text-anchor="middle" style="font-family: Arial;font-size: 7.92px;" textLength="24.72px" lengthAdjust="spacingAndGlyphs">2016.0</text></g>
<g><text x="284.63" y="244.64" text-anchor="middle" style="font-family: Arial;font-size: 7.92px;" textLength="24.72px" lengthAdjust="spacingAndGlyphs">2016.5</text></g>
<g><text x="364.74" y="244.64" text-anchor="middle" style="font-family: Arial;font-size: 7.92px;" textLength="24.72px" lengthAdjust="spacingAndGlyphs">2017.0</text></g>
<g><text x="444.84" y="244.64" text-anchor="middle" style="font-family: Arial;font-size: 7.92px;" textLength="24.72px" lengthAdjust="spacingAndGlyphs">2017.5</text></g>
<g><text x="524.95" y="244.64" text-anchor="middle" style="font-family: Arial;font-size: 7.92px;" textLength="24.72px" lengthAdjust="spacingAndGlyphs">2018.0</text></g>
<line x1="38.97" y1="201.59" x2="38.97" y2="51.94" style="stroke-width: 0.75;"/>
<line x1="38.97" y1="201.59" x2="34.21" y2="201.59" style="stroke-width: 0.75;"/>
<line x1="38.97" y1="151.71" x2="34.21" y2="151.71" style="stroke-width: 0.75;"/>
<line x1="38.97" y1="101.82" x2="34.21" y2="101.82" style="stroke-width: 0.75;"/>
<line x1="38.97" y1="51.94" x2="34.21" y2="51.94" style="stroke-width: 0.75;"/>
<g><text transform="translate(27.56,201.59) rotate(-90.00)" text-anchor="middle" style="font-family: Arial;font-size: 7.92px;" textLength="13.56px" lengthAdjust="spacingAndGlyphs">125</text></g>
<g><text transform="translate(27.56,151.71) rotate(-90.00)" text-anchor="middle" style="font-family: Arial;font-size: 7.92px;" textLength="13.56px" lengthAdjust="spacingAndGlyphs">130</text></g>
<g><text transform="translate(27.56,101.82) rotate(-90.00)" text-anchor="middle" style="font-family: Arial;font-size: 7.92px;" textLength="13.56px" lengthAdjust="spacingAndGlyphs">135</text></g>
<g><text transform="translate(27.56,51.94) rotate(-90.00)" text-anchor="middle" style="font-family: Arial;font-size: 7.92px;" textLength="13.56px" lengthAdjust="spacingAndGlyphs">140</text></g>
<polygon points="38.97,227.53 543.64,227.53 543.64,38.97 38.97,38.97" style="stroke-width: 0.75;" />
</g><g clip-path="url(#c4)">
<line x1="621.26" y1="177.56" x2="621.26" y2="45.95" style="stroke-width: 0.75;stroke: #0000FF;"/>
<line x1="652.41" y1="177.56" x2="652.41" y2="70.93" style="stroke-width: 0.75;stroke: #0000FF;"/>
<line x1="683.56" y1="177.56" x2="683.56" y2="92.90" style="stroke-width: 0.75;stroke: #0000FF;"/>
<line x1="714.72" y1="177.56" x2="714.72" y2="112.44" style="stroke-width: 0.75;stroke: #0000FF;"/>
<line x1="745.87" y1="177.56" x2="745.87" y2="126.21" style="stroke-width: 0.75;stroke: #0000FF;"/>
<line x1="777.02" y1="177.56" x2="777.02" y2="138.86" style="stroke-width: 0.75;stroke: #0000FF;"/>
<line x1="808.17" y1="177.56" x2="808.17" y2="149.66" style="stroke-width: 0.75;stroke: #0000FF;"/>
<line x1="839.33" y1="177.56" x2="839.33" y2="155.47" style="stroke-width: 0.75;stroke: #0000FF;"/>
<line x1="870.48" y1="177.56" x2="870.48" y2="156.47" style="stroke-width: 0.75;stroke: #0000FF;"/>
<line x1="901.63" y1="177.56" x2="901.63" y2="155.61" style="stroke-width: 0.75;stroke: #0000FF;"/>
<line x1="932.79" y1="177.56" x2="932.79" y2="155.85" style="stroke-width: 0.75;stroke: #0000FF;"/>
<line x1="963.94" y1="177.56" x2="963.94" y2="160.10" style="stroke-width: 0.75;stroke: #0000FF;"/>
<line x1="995.09" y1="177.56" x2="995.09" y2="165.16" style="stroke-width: 0.75;stroke: #0000FF;"/>
<line x1="1026.24" y1="177.56" x2="1026.24" y2="171.84" style="stroke-width: 0.75;stroke: #0000FF;"/>
<line x1="1057.40" y1="177.56" x2="1057.40" y2="186.01" style="stroke-width: 0.75;stroke: #0000FF;"/>
<line x1="1088.55" y1="177.56" x2="1088.55" y2="202.08" style="stroke-width: 0.75;stroke: #0000FF;"/>
</g><g clip-path="url(#c5)">
<line x1="621.26" y1="227.53" x2="1069.86" y2="227.53" style="stroke-width: 0.75;"/>
<line x1="621.26" y1="227.53" x2="621.26" y2="232.28" style="stroke-width: 0.75;"/>
<line x1="696.02" y1="227.53" x2="696.02" y2="232.28" style="stroke-width: 0.75;"/>
<line x1="770.79" y1="227.53" x2="770.79" y2="232.28" style="stroke-width: 0.75;"/>
<line x1="845.56" y1="227.53" x2="845.56" y2="232.28" style="stroke-width: 0.75;"/>
<line x1="920.32" y1="227.53" x2="920.32" y2="232.28" style="stroke-width: 0.75;"/>
<line x1="995.09" y1="227.53" x2="995.09" y2="232.28" style="stroke-width: 0.75;"/>
<line x1="1069.86" y1="227.53" x2="1069.86" y2="232.28" style="stroke-width: 0.75;"/>
<g><text x="621.26" y="244.64" text-anchor="middle" style="font-family: Arial;font-size: 7.92px;" textLength="11.16px" lengthAdjust="spacingAndGlyphs">0.0</text></g>
<g><text x="696.02" y="244.64" text-anchor="middle" style="font-family: Arial;font-size: 7.92px;" textLength="11.16px" lengthAdjust="spacingAndGlyphs">0.2</text></g>
<g><text x="770.79" y="244.64" text-anchor="middle" style="font-family: Arial;font-size: 7.92px;" textLength="11.16px" lengthAdjust="spacingAndGlyphs">0.4</text></g>
<g><text x="845.56" y="244.64" text-anchor="middle" style="font-family: Arial;font-size: 7.92px;" textLength="11.16px" lengthAdjust="spacingAndGlyphs">0.6</text></g>
<g><text x="920.32" y="244.64" text-anchor="middle" style="font-family: Arial;font-size: 7.92px;" textLength="11.16px" lengthAdjust="spacingAndGlyphs">0.8</text></g>
<g><text x="995.09" y="244.64" text-anchor="middle" style="font-family: Arial;font-size: 7.92px;" textLength="11.16px" lengthAdjust="spacingAndGlyphs">1.0</text></g>
<g><text x="1069.86" y="244.64" text-anchor="middle" style="font-family: Arial;font-size: 7.92px;" textLength="11.16px" lengthAdjust="spacingAndGlyphs">1.2</text></g>
<line x1="602.57" y1="203.88" x2="602.57" y2="45.95" style="stroke-width: 0.75;"/>
<line x1="602.57" y1="203.88" x2="597.81" y2="203.88" style="stroke-width: 0.75;"/>
<line x1="602.57" y1="177.56" x2="597.81" y2="177.56" style="stroke-width: 0.75;"/>
<line x1="602.57" y1="151.23" x2="597.81" y2="151.23" style="stroke-width: 0.75;"/>
<line x1="602.57" y1="124.91" x2="597.81" y2="124.91" style="stroke-width: 0.75;"/>
<line x1="602.57" y1="98.59" x2="597.81" y2="98.59" style="stroke-width: 0.75;"/>
<line x1="602.57" y1="72.27" x2="597.81" y2="72.27" style="stroke-width: 0.75;"/>
<line x1="602.57" y1="45.95" x2="597.81" y2="45.95" style="stroke-width: 0.75;"/>
<g><text transform="translate(591.16,203.88) rotate(-90.00)" text-anchor="middle" style="font-family: Arial;font-size: 7.92px;" textLength="13.71px" lengthAdjust="spacingAndGlyphs">-0.2</text></g>
<g><text transform="translate(591.16,177.56) rotate(-90.00)" text-anchor="middle" style="font-family: Arial;font-size: 7.92px;" textLength="11.16px" lengthAdjust="spacingAndGlyphs">0.0</text></g>
<g><text transform="translate(591.16,151.23) rotate(-90.00)" text-anchor="middle" style="font-family: Arial;font-size: 7.92px;" textLength="11.16px" lengthAdjust="spacingAndGlyphs">0.2</text></g>
<g><text transform="translate(591.16,124.91) rotate(-90.00)" text-anchor="middle" style="font-family: Arial;font-size: 7.92px;" textLength="11.16px" lengthAdjust="spacingAndGlyphs">0.4</text></g>
<g><text transform="translate(591.16,98.59) rotate(-90.00)" text-anchor="middle" style="font-family: Arial;font-size: 7.92px;" textLength="11.16px" lengthAdjust="spacingAndGlyphs">0.6</text></g>
<g><text transform="translate(591.16,72.27) rotate(-90.00)" text-anchor="middle" style="font-family: Arial;font-size: 7.92px;" textLength="11.16px" lengthAdjust="spacingAndGlyphs">0.8</text></g>
<g><text transform="translate(591.16,45.95) rotate(-90.00)" text-anchor="middle" style="font-family: Arial;font-size: 7.92px;" textLength="11.16px" lengthAdjust="spacingAndGlyphs">1.0</text></g>
<polygon points="602.57,227.53 1107.24,227.53 1107.24,38.97 602.57,38.97" style="stroke-width: 0.75;" />
</g><g clip-path="url(#c6)">
<g><text x="854.90" y="263.64" text-anchor="middle" style="font-family: Arial;font-size: 7.92px;" textLength="13.44px" lengthAdjust="spacingAndGlyphs">Lag</text></g>
<g><text transform="translate(572.15,133.25) rotate(-90.00)" text-anchor="middle" style="font-family: Arial;font-size: 7.92px;" textLength="14.16px" lengthAdjust="spacingAndGlyphs">ACF</text></g>
</g><g clip-path="url(#c7)">
<line x1="602.57" y1="177.56" x2="1107.24" y2="177.56" style="stroke-width: 0.75;"/>
<line x1="602.57" y1="134.57" x2="1107.24" y2="134.57" style="stroke-width: 0.75;stroke: #0000FF; stroke-dasharray: 4.00, 4.00;"/>
<line x1="602.57" y1="220.55" x2="1107.24" y2="220.55" style="stroke-width: 0.75;stroke: #0000FF; stroke-dasharray: 4.00, 4.00;"/>
</g><g clip-path="url(#c8)">
<g><text x="854.90" y="19.96" text-anchor="middle" style="font-family: Arial;font-size: 9.50px;" textLength="66.66px" lengthAdjust="spacingAndGlyphs">Series  series1</text></g>
</g><g clip-path="url(#c9)">
<polyline points="57.66,496.55 71.01,494.29 84.36,485.28 97.71,471.76 111.06,465.01 124.41,460.50 137.77,454.87 151.12,448.11 164.47,444.73 177.82,439.10 191.17,441.35 204.52,436.85 217.87,427.83 231.22,423.33 244.57,415.44 257.93,410.94 271.28,418.82 284.63,419.95 297.98,415.44 311.33,408.68 324.68,407.56 338.03,405.31 351.38,399.67 364.74,397.42 378.09,389.54 391.44,371.51 404.79,369.26 418.14,356.87 431.49,343.35 444.84,335.47 458.19,339.97 471.55,346.73 484.90,339.97 498.25,335.47 511.60,321.95 524.95,496.55" style="stroke-width: 0.75;stroke: #FF0000;"/>
</g><g clip-path="url(#c10)">
<g><text x="291.30" y="539.64" text-anchor="middle" style="font-family: Arial;font-size: 7.92px;" textLength="18.29px" lengthAdjust="spacingAndGlyphs">Time</text></g>
<g><text transform="translate(8.55,409.25) rotate(-90.00)" text-anchor="middle" style="font-family: Arial;font-size: 7.92px;" textLength="26.32px" lengthAdjust="spacingAndGlyphs">series2</text></g>
</g><g clip-path="url(#c11)">
<line x1="44.31" y1="503.53" x2="524.95" y2="503.53" style="stroke-width: 0.75;"/>
<line x1="44.31" y1="503.53" x2="44.31" y2="508.28" style="stroke-width: 0.75;"/>
<line x1="124.41" y1="503.53" x2="124.41" y2="508.28" style="stroke-width: 0.75;"/>
<line x1="204.52" y1="503.53" x2="204.52" y2="508.28" style="stroke-width: 0.75;"/>
<line x1="284.63" y1="503.53" x2="284.63" y2="508.28" style="stroke-width: 0.75;"/>
<line x1="364.74" y1="503.53" x2="364.74" y2="508.28" style="stroke-width: 0.75;"/>
<line x1="444.84" y1="503.53" x2="444.84" y2="508.28" style="stroke-width: 0.75;"/>
<line x1="524.95" y1="503.53" x2="524.95" y2="508.28" style="stroke-width: 0.75;"/>
<g><text x="44.31" y="520.64" text-anchor="middle" style="font-family: Arial;font-size: 7.92px;" textLength="24.72px" lengthAdjust="spacingAndGlyphs">2015.0</text></g>
<g><text x="124.41" y="520.64" text-anchor="middle" style="font-family: Arial;font-size: 7.92px;" textLength="24.72px" lengthAdjust="spacingAndGlyphs">2015.5</text></g>
<g><text x="204.52" y="520.64" text-anchor="middle" style="font-family: Arial;font-size: 7.92px;" textLength="24.72px" lengthAdjust="spacingAndGlyphs">2016.0</text></g>
<g><text x="284.63" y="520.64" text-anchor="middle" style="font-family: Arial;font-size: 7.92px;" textLength="24.72px" lengthAdjust="spacingAndGlyphs">2016.5</text></g>
<g><text x="364.74" y="520.64" text-anchor="middle" style="font-family: Arial;font-size: 7.92px;" textLength="24.72px" lengthAdjust="spacingAndGlyphs">2017.0</text></g>
<g><text x="444.84" y="520.64" text-anchor="middle" style="font-family: Arial;font-size: 7.92px;" textLength="24.72px" lengthAdjust="spacingAndGlyphs">2017.5</text></g>
<g><text x="524.95" y="520.64" text-anchor="middle" style="font-family: Arial;font-size: 7.92px;" textLength="24.72px" lengthAdjust="spacingAndGlyphs">2018.0</text></g>
<line x1="38.97" y1="502.18" x2="38.97" y2="333.21" style="stroke-width: 0.75;"/>
<line x1="38.97" y1="502.18" x2="34.21" y2="502.18" style="stroke-width: 0.75;"/>
<line x1="38.97" y1="445.86" x2="34.21" y2="445.86" style="stroke-width: 0.75;"/>
<line x1="38.97" y1="389.54" x2="34.21" y2="389.54" style="stroke-width: 0.75;"/>
<line x1="38.97" y1="333.21" x2="34.21" y2="333.21" style="stroke-width: 0.75;"/>
<g><text transform="translate(27.56,502.18) rotate(-90.00)" text-anchor="middle" style="font-family: Arial;font-size: 7.92px;" textLength="13.56px" lengthAdjust="spacingAndGlyphs">115</text></g>
<g><text transform="translate(27.56,445.86) rotate(-90.00)" text-anchor="middle" style="font-family: Arial;font-size: 7.92px;" textLength="13.56px" lengthAdjust="spacingAndGlyphs">120</text></g>
<g><text transform="translate(27.56,389.54) rotate(-90.00)" text-anchor="middle" style="font-family: Arial;font-size: 7.92px;" textLength="13.56px" lengthAdjust="spacingAndGlyphs">125</text></g>
<g><text transform="translate(27.56,333.21) rotate(-90.00)" text-anchor="middle" style="font-family: Arial;font-size: 7.92px;" textLength="13.56px" lengthAdjust="spacingAndGlyphs">130</text></g>
<polygon points="38.97,503.53 543.64,503.53 543.64,314.97 38.97,314.97" style="stroke-width: 0.75;" />
</g><g clip-path="url(#c12)">
<line x1="621.26" y1="453.56" x2="621.26" y2="321.95" style="stroke-width: 0.75;stroke: #0000FF;"/>
<line x1="652.41" y1="453.56" x2="652.41" y2="356.57" style="stroke-width: 0.75;stroke: #0000FF;"/>
<line x1="683.56" y1="453.56" x2="683.56" y2="367.14" style="stroke-width: 0.75;stroke: #0000FF;"/>
<line x1="714.72" y1="453.56" x2="714.72" y2="378.12" style="stroke-width: 0.75;stroke: #0000FF;"/>
<line x1="745.87" y1="453.56" x2="745.87" y2="387.09" style="stroke-width: 0.75;stroke: #0000FF;"/>
<line x1="777.02" y1="453.56" x2="777.02" y2="398.71" style="stroke-width: 0.75;stroke: #0000FF;"/>
<line x1="808.17" y1="453.56" x2="808.17" y2="411.12" style="stroke-width: 0.75;stroke: #0000FF;"/>
<line x1="839.33" y1="453.56" x2="839.33" y2="421.25" style="stroke-width: 0.75;stroke: #0000FF;"/>
<line x1="870.48" y1="453.56" x2="870.48" y2="429.02" style="stroke-width: 0.75;stroke: #0000FF;"/>
<line x1="901.63" y1="453.56" x2="901.63" y2="435.51" style="stroke-width: 0.75;stroke: #0000FF;"/>
<line x1="932.79" y1="453.56" x2="932.79" y2="443.09" style="stroke-width: 0.75;stroke: #0000FF;"/>
<line x1="963.94" y1="453.56" x2="963.94" y2="447.55" style="stroke-width: 0.75;stroke: #0000FF;"/>
<line x1="995.09" y1="453.56" x2="995.09" y2="452.25" style="stroke-width: 0.75;stroke: #0000FF;"/>
<line x1="1026.24" y1="453.56" x2="1026.24" y2="456.68" style="stroke-width: 0.75;stroke: #0000FF;"/>
<line x1="1057.40" y1="453.56" x2="1057.40" y2="459.97" style="stroke-width: 0.75;stroke: #0000FF;"/>
<line x1="1088.55" y1="453.56" x2="1088.55" y2="463.04" style="stroke-width: 0.75;stroke: #0000FF;"/>
</g><g clip-path="url(#c13)">
<line x1="621.26" y1="503.53" x2="1069.86" y2="503.53" style="stroke-width: 0.75;"/>
<line x1="621.26" y1="503.53" x2="621.26" y2="508.28" style="stroke-width: 0.75;"/>
<line x1="696.02" y1="503.53" x2="696.02" y2="508.28" style="stroke-width: 0.75;"/>
<line x1="770.79" y1="503.53" x2="770.79" y2="508.28" style="stroke-width: 0.75;"/>
<line x1="845.56" y1="503.53" x2="845.56" y2="508.28" style="stroke-width: 0.75;"/>
<line x1="920.32" y1="503.53" x2="920.32" y2="508.28" style="stroke-width: 0.75;"/>
<line x1="995.09" y1="503.53" x2="995.09" y2="508.28" style="stroke-width: 0.75;"/>
<line x1="1069.86" y1="503.53" x2="1069.86" y2="508.28" style="stroke-width: 0.75;"/>
<g><text x="621.26" y="520.64" text-anchor="middle" style="font-family: Arial;font-size: 7.92px;" textLength="11.16px" lengthAdjust="spacingAndGlyphs">0.0</text></g>
<g><text x="696.02" y="520.64" text-anchor="middle" style="font-family: Arial;font-size: 7.92px;" textLength="11.16px" lengthAdjust="spacingAndGlyphs">0.2</text></g>
<g><text x="770.79" y="520.64" text-anchor="middle" style="font-family: Arial;font-size: 7.92px;" textLength="11.16px" lengthAdjust="spacingAndGlyphs">0.4</text></g>
<g><text x="845.56" y="520.64" text-anchor="middle" style="font-family: Arial;font-size: 7.92px;" textLength="11.16px" lengthAdjust="spacingAndGlyphs">0.6</text></g>
<g><text x="920.32" y="520.64" text-anchor="middle" style="font-family: Arial;font-size: 7.92px;" textLength="11.16px" lengthAdjust="spacingAndGlyphs">0.8</text></g>
<g><text x="995.09" y="520.64" text-anchor="middle" style="font-family: Arial;font-size: 7.92px;" textLength="11.16px" lengthAdjust="spacingAndGlyphs">1.0</text></g>
<g><text x="1069.86" y="520.64" text-anchor="middle" style="font-family: Arial;font-size: 7.92px;" textLength="11.16px" lengthAdjust="spacingAndGlyphs">1.2</text></g>
<line x1="602.57" y1="479.88" x2="602.57" y2="321.95" style="stroke-width: 0.75;"/>
<line x1="602.57" y1="479.88" x2="597.81" y2="479.88" style="stroke-width: 0.75;"/>
<line x1="602.57" y1="453.56" x2="597.81" y2="453.56" style="stroke-width: 0.75;"/>
<line x1="602.57" y1="427.23" x2="597.81" y2="427.23" style="stroke-width: 0.75;"/>
<line x1="602.57" y1="400.91" x2="597.81" y2="400.91" style="stroke-width: 0.75;"/>
<line x1="602.57" y1="374.59" x2="597.81" y2="374.59" style="stroke-width: 0.75;"/>
<line x1="602.57" y1="348.27" x2="597.81" y2="348.27" style="stroke-width: 0.75;"/>
<line x1="602.57" y1="321.95" x2="597.81" y2="321.95" style="stroke-width: 0.75;"/>
<g><text transform="translate(591.16,479.88) rotate(-90.00)" text-anchor="middle" style="font-family: Arial;font-size: 7.92px;" textLength="13.71px" lengthAdjust="spacingAndGlyphs">-0.2</text></g>
<g><text transform="translate(591.16,453.56) rotate(-90.00)" text-anchor="middle" style="font-family: Arial;font-size: 7.92px;" textLength="11.16px" lengthAdjust="spacingAndGlyphs">0.0</text></g>
<g><text transform="translate(591.16,427.23) rotate(-90.00)" text-anchor="middle" style="font-family: Arial;font-size: 7.92px;" textLength="11.16px" lengthAdjust="spacingAndGlyphs">0.2</text></g>
<g><text transform="translate(591.16,400.91) rotate(-90.00)" text-anchor="middle" style="font-family: Arial;font-size: 7.92px;" textLength="11.16px" lengthAdjust="spacingAndGlyphs">0.4</text></g>
<g><text transform="translate(591.16,374.59) rotate(-90.00)" text-anchor="middle" style="font-family: Arial;font-size: 7.92px;" textLength="11.16px" lengthAdjust="spacingAndGlyphs">0.6</text></g>
<g><text transform="translate(591.16,348.27) rotate(-90.00)" text-anchor="middle" style="font-family: Arial;font-size: 7.92px;" textLength="11.16px" lengthAdjust="spacingAndGlyphs">0.8</text></g>
<g><text transform="translate(591.16,321.95) rotate(-90.00)" text-anchor="middle" style="font-family: Arial;font-size: 7.92px;" textLength="11.16px" lengthAdjust="spacingAndGlyphs">1.0</text></g>
<polygon points="602.57,503.53 1107.24,503.53 1107.24,314.97 602.57,314.97" style="stroke-width: 0.75;" />
</g><g clip-path="url(#c14)">
<g><text x="854.90" y="539.64" text-anchor="middle" style="font-family: Arial;font-size: 7.92px;" textLength="13.44px" lengthAdjust="spacingAndGlyphs">Lag</text></g>
<g><text transform="translate(572.15,409.25) rotate(-90.00)" text-anchor="middle" style="font-family: Arial;font-size: 7.92px;" textLength="14.16px" lengthAdjust="spacingAndGlyphs">ACF</text></g>
</g><g clip-path="url(#c15)">
<line x1="602.57" y1="453.56" x2="1107.24" y2="453.56" style="stroke-width: 0.75;"/>
<line x1="602.57" y1="410.57" x2="1107.24" y2="410.57" style="stroke-width: 0.75;stroke: #0000FF; stroke-dasharray: 4.00, 4.00;"/>
<line x1="602.57" y1="496.55" x2="1107.24" y2="496.55" style="stroke-width: 0.75;stroke: #0000FF; stroke-dasharray: 4.00, 4.00;"/>
</g><g clip-path="url(#c16)">
<g><text x="854.90" y="295.96" text-anchor="middle" style="font-family: Arial;font-size: 9.50px;" textLength="66.66px" lengthAdjust="spacingAndGlyphs">Series  series2</text></g>
</g><g clip-path="url(#c17)">
<polyline points="57.66,772.55 71.01,772.55 84.36,770.00 97.71,768.72 111.06,761.08 124.41,755.98 137.77,743.23 151.12,731.76 164.47,729.22 177.82,729.22 191.17,725.39 204.52,720.29 217.87,717.75 231.22,715.20 244.57,712.65 257.93,705.00 271.28,702.45 284.63,693.53 297.98,684.61 311.33,674.42 324.68,669.32 338.03,666.77 351.38,657.85 364.74,650.20 378.09,645.10 391.44,643.83 404.79,637.46 418.14,632.36 431.49,628.54 444.84,628.54 458.19,625.99 471.55,623.44 484.90,618.34 498.25,606.87 511.60,597.95 524.95,772.55" style="stroke-width: 0.75;stroke: #FF0000;"/>
</g><g clip-path="url(#c18)">
<g><text x="291.30" y="815.64" text-anchor="middle" style="font-family: Arial;font-size: 7.92px;" textLength="18.29px" lengthAdjust="spacingAndGlyphs">Time</text></g>
<g><text transform="translate(8.55,685.25) rotate(-90.00)" text-anchor="middle" style="font-family: Arial;font-size: 7.92px;" textLength="26.32px" lengthAdjust="spacingAndGlyphs">series3</text></g>
</g><g clip-path="url(#c19)">
<line x1="44.31" y1="779.53" x2="524.95" y2="779.53" style="stroke-width: 0.75;"/>
<line x1="44.31" y1="779.53" x2="44.31" y2="784.28" style="stroke-width: 0.75;"/>
<line x1="124.41" y1="779.53" x2="124.41" y2="784.28" style="stroke-width: 0.75;"/>
<line x1="204.52" y1="779.53" x2="204.52" y2="784.28" style="stroke-width: 0.75;"/>
<line x1="284.63" y1="779.53" x2="284.63" y2="784.28" style="stroke-width: 0.75;"/>
<line x1="364.74" y1="779.53" x2="364.74" y2="784.28" style="stroke-width: 0.75;"/>
<line x1="444.84" y1="779.53" x2="444.84" y2="784.28" style="stroke-width: 0.75;"/>
<line x1="524.95" y1="779.53" x2="524.95" y2="784.28" style="stroke-width: 0.75;"/>
<g><text x="44.31" y="796.64" text-anchor="middle" style="font-family: Arial;font-size: 7.92px;" textLength="24.72px" lengthAdjust="spacingAndGlyphs">2015.0</text></g>
<g><text x="124.41" y="796.64" text-anchor="middle" style="font-family: Arial;font-size: 7.92px;" textLength="24.72px" lengthAdjust="spacingAndGlyphs">2015.5</text></g>
<g><text x="204.52" y="796.64" text-anchor="middle" style="font-family: Arial;font-size: 7.92px;" textLength="24.72px" lengthAdjust="spacingAndGlyphs">2016.0</text></g>
<g><text x="284.63" y="796.64" text-anchor="middle" style="font-family: Arial;font-size: 7.92px;" textLength="24.72px" lengthAdjust="spacingAndGlyphs">2016.5</text></g>
<g><text x="364.74" y="796.64" text-anchor="middle" style="font-family: Arial;font-size: 7.92px;" textLength="24.72px" lengthAdjust="spacingAndGlyphs">2017.0</text></g>
<g><text x="444.84" y="796.64" text-anchor="middle" style="font-family: Arial;font-size: 7.92px;" textLength="24.72px" lengthAdjust="spacingAndGlyphs">2017.5</text></g>
<g><text x="524.95" y="796.64" text-anchor="middle" style="font-family: Arial;font-size: 7.92px;" textLength="24.72px" lengthAdjust="spacingAndGlyphs">2018.0</text></g>
<line x1="38.97" y1="770.00" x2="38.97" y2="591.58" style="stroke-width: 0.75;"/>
<line x1="38.97" y1="770.00" x2="34.21" y2="770.00" style="stroke-width: 0.75;"/>
<line x1="38.97" y1="744.51" x2="34.21" y2="744.51" style="stroke-width: 0.75;"/>
<line x1="38.97" y1="719.02" x2="34.21" y2="719.02" style="stroke-width: 0.75;"/>
<line x1="38.97" y1="693.53" x2="34.21" y2="693.53" style="stroke-width: 0.75;"/>
<line x1="38.97" y1="668.04" x2="34.21" y2="668.04" style="stroke-width: 0.75;"/>
<line x1="38.97" y1="642.55" x2="34.21" y2="642.55" style="stroke-width: 0.75;"/>
<line x1="38.97" y1="617.07" x2="34.21" y2="617.07" style="stroke-width: 0.75;"/>
<line x1="38.97" y1="591.58" x2="34.21" y2="591.58" style="stroke-width: 0.75;"/>
<g><text transform="translate(27.56,770.00) rotate(-90.00)" text-anchor="middle" style="font-family: Arial;font-size: 7.92px;" textLength="13.56px" lengthAdjust="spacingAndGlyphs">114</text></g>
<g><text transform="translate(27.56,744.51) rotate(-90.00)" text-anchor="middle" style="font-family: Arial;font-size: 7.92px;" textLength="13.56px" lengthAdjust="spacingAndGlyphs">116</text></g>
<g><text transform="translate(27.56,719.02) rotate(-90.00)" text-anchor="middle" style="font-family: Arial;font-size: 7.92px;" textLength="13.56px" lengthAdjust="spacingAndGlyphs">118</text></g>
<g><text transform="translate(27.56,693.53) rotate(-90.00)" text-anchor="middle" style="font-family: Arial;font-size: 7.92px;" textLength="13.56px" lengthAdjust="spacingAndGlyphs">120</text></g>
<g><text transform="translate(27.56,668.04) rotate(-90.00)" text-anchor="middle" style="font-family: Arial;font-size: 7.92px;" textLength="13.56px" lengthAdjust="spacingAndGlyphs">122</text></g>
<g><text transform="translate(27.56,642.55) rotate(-90.00)" text-anchor="middle" style="font-family: Arial;font-size: 7.92px;" textLength="13.56px" lengthAdjust="spacingAndGlyphs">124</text></g>
<g><text transform="translate(27.56,617.07) rotate(-90.00)" text-anchor="middle" style="font-family: Arial;font-size: 7.92px;" textLength="13.56px" lengthAdjust="spacingAndGlyphs">126</text></g>
<g><text transform="translate(27.56,591.58) rotate(-90.00)" text-anchor="middle" style="font-family: Arial;font-size: 7.92px;" textLength="13.56px" lengthAdjust="spacingAndGlyphs">128</text></g>
<polygon points="38.97,779.53 543.64,779.53 543.64,590.97 38.97,590.97" style="stroke-width: 0.75;" />
</g><g clip-path="url(#c20)">
<line x1="621.26" y1="729.56" x2="621.26" y2="597.95" style="stroke-width: 0.75;stroke: #0000FF;"/>
<line x1="652.41" y1="729.56" x2="652.41" y2="626.07" style="stroke-width: 0.75;stroke: #0000FF;"/>
<line x1="683.56" y1="729.56" x2="683.56" y2="635.79" style="stroke-width: 0.75;stroke: #0000FF;"/>
<line x1="714.72" y1="729.56" x2="714.72" y2="644.67" style="stroke-width: 0.75;stroke: #0000FF;"/>
<line x1="745.87" y1="729.56" x2="745.87" y2="654.38" style="stroke-width: 0.75;stroke: #0000FF;"/>
<line x1="777.02" y1="729.56" x2="777.02" y2="664.24" style="stroke-width: 0.75;stroke: #0000FF;"/>
<line x1="808.17" y1="729.56" x2="808.17" y2="674.16" style="stroke-width: 0.75;stroke: #0000FF;"/>
<line x1="839.33" y1="729.56" x2="839.33" y2="683.83" style="stroke-width: 0.75;stroke: #0000FF;"/>
<line x1="870.48" y1="729.56" x2="870.48" y2="692.35" style="stroke-width: 0.75;stroke: #0000FF;"/>
<line x1="901.63" y1="729.56" x2="901.63" y2="700.69" style="stroke-width: 0.75;stroke: #0000FF;"/>
<line x1="932.79" y1="729.56" x2="932.79" y2="708.96" style="stroke-width: 0.75;stroke: #0000FF;"/>
<line x1="963.94" y1="729.56" x2="963.94" y2="717.97" style="stroke-width: 0.75;stroke: #0000FF;"/>
<line x1="995.09" y1="729.56" x2="995.09" y2="726.40" style="stroke-width: 0.75;stroke: #0000FF;"/>
<line x1="1026.24" y1="729.56" x2="1026.24" y2="734.25" style="stroke-width: 0.75;stroke: #0000FF;"/>
<line x1="1057.40" y1="729.56" x2="1057.40" y2="741.45" style="stroke-width: 0.75;stroke: #0000FF;"/>
<line x1="1088.55" y1="729.56" x2="1088.55" y2="749.44" style="stroke-width: 0.75;stroke: #0000FF;"/>
</g><g clip-path="url(#c21)">
<line x1="621.26" y1="779.53" x2="1069.86" y2="779.53" style="stroke-width: 0.75;"/>
<line x1="621.26" y1="779.53" x2="621.26" y2="784.28" style="stroke-width: 0.75;"/>
<line x1="696.02" y1="779.53" x2="696.02" y2="784.28" style="stroke-width: 0.75;"/>
<line x1="770.79" y1="779.53" x2="770.79" y2="784.28" style="stroke-width: 0.75;"/>
<line x1="845.56" y1="779.53" x2="845.56" y2="784.28" style="stroke-width: 0.75;"/>
<line x1="920.32" y1="779.53" x2="920.32" y2="784.28" style="stroke-width: 0.75;"/>
<line x1="995.09" y1="779.53" x2="995.09" y2="784.28" style="stroke-width: 0.75;"/>
<line x1="1069.86" y1="779.53" x2="1069.86" y2="784.28" style="stroke-width: 0.75;"/>
<g><text x="621.26" y="796.64" text-anchor="middle" style="font-family: Arial;font-size: 7.92px;" textLength="11.16px" lengthAdjust="spacingAndGlyphs">0.0</text></g>
<g><text x="696.02" y="796.64" text-anchor="middle" style="font-family: Arial;font-size: 7.92px;" textLength="11.16px" lengthAdjust="spacingAndGlyphs">0.2</text></g>
<g><text x="770.79" y="796.64" text-anchor="middle" style="font-family: Arial;font-size: 7.92px;" textLength="11.16px" lengthAdjust="spacingAndGlyphs">0.4</text></g>
<g><text x="845.56" y="796.64" text-anchor="middle" style="font-family: Arial;font-size: 7.92px;" textLength="11.16px" lengthAdjust="spacingAndGlyphs">0.6</text></g>
<g><text x="920.32" y="796.64" text-anchor="middle" style="font-family: Arial;font-size: 7.92px;" textLength="11.16px" lengthAdjust="spacingAndGlyphs">0.8</text></g>
<g><text x="995.09" y="796.64" text-anchor="middle" style="font-family: Arial;font-size: 7.92px;" textLength="11.16px" lengthAdjust="spacingAndGlyphs">1.0</text></g>
<g><text x="1069.86" y="796.64" text-anchor="middle" style="font-family: Arial;font-size: 7.92px;" textLength="11.16px" lengthAdjust="spacingAndGlyphs">1.2</text></g>
<line x1="602.57" y1="755.88" x2="602.57" y2="597.95" style="stroke-width: 0.75;"/>
<line x1="602.57" y1="755.88" x2="597.81" y2="755.88" style="stroke-width: 0.75;"/>
<line x1="602.57" y1="729.56" x2="597.81" y2="729.56" style="stroke-width: 0.75;"/>
<line x1="602.57" y1="703.23" x2="597.81" y2="703.23" style="stroke-width: 0.75;"/>
<line x1="602.57" y1="676.91" x2="597.81" y2="676.91" style="stroke-width: 0.75;"/>
<line x1="602.57" y1="650.59" x2="597.81" y2="650.59" style="stroke-width: 0.75;"/>
<line x1="602.57" y1="624.27" x2="597.81" y2="624.27" style="stroke-width: 0.75;"/>
<line x1="602.57" y1="597.95" x2="597.81" y2="597.95" style="stroke-width: 0.75;"/>
<g><text transform="translate(591.16,755.88) rotate(-90.00)" text-anchor="middle" style="font-family: Arial;font-size: 7.92px;" textLength="13.71px" lengthAdjust="spacingAndGlyphs">-0.2</text></g>
<g><text transform="translate(591.16,729.56) rotate(-90.00)" text-anchor="middle" style="font-family: Arial;font-size: 7.92px;" textLength="11.16px" lengthAdjust="spacingAndGlyphs">0.0</text></g>
<g><text transform="translate(591.16,703.23) rotate(-90.00)" text-anchor="middle" style="font-family: Arial;font-size: 7.92px;" textLength="11.16px" lengthAdjust="spacingAndGlyphs">0.2</text></g>
<g><text transform="translate(591.16,676.91) rotate(-90.00)" text-anchor="middle" style="font-family: Arial;font-size: 7.92px;" textLength="11.16px" lengthAdjust="spacingAndGlyphs">0.4</text></g>
<g><text transform="translate(591.16,650.59) rotate(-90.00)" text-anchor="middle" style="font-family: Arial;font-size: 7.92px;" textLength="11.16px" lengthAdjust="spacingAndGlyphs">0.6</text></g>
<g><text transform="translate(591.16,624.27) rotate(-90.00)" text-anchor="middle" style="font-family: Arial;font-size: 7.92px;" textLength="11.16px" lengthAdjust="spacingAndGlyphs">0.8</text></g>
<g><text transform="translate(591.16,597.95) rotate(-90.00)" text-anchor="middle" style="font-family: Arial;font-size: 7.92px;" textLength="11.16px" lengthAdjust="spacingAndGlyphs">1.0</text></g>
<polygon points="602.57,779.53 1107.24,779.53 1107.24,590.97 602.57,590.97" style="stroke-width: 0.75;" />
</g><g clip-path="url(#c22)">
<g><text x="854.90" y="815.64" text-anchor="middle" style="font-family: Arial;font-size: 7.92px;" textLength="13.44px" lengthAdjust="spacingAndGlyphs">Lag</text></g>
<g><text transform="translate(572.15,685.25) rotate(-90.00)" text-anchor="middle" style="font-family: Arial;font-size: 7.92px;" textLength="14.16px" lengthAdjust="spacingAndGlyphs">ACF</text></g>
</g><g clip-path="url(#c23)">
<line x1="602.57" y1="729.56" x2="1107.24" y2="729.56" style="stroke-width: 0.75;"/>
<line x1="602.57" y1="686.57" x2="1107.24" y2="686.57" style="stroke-width: 0.75;stroke: #0000FF; stroke-dasharray: 4.00, 4.00;"/>
<line x1="602.57" y1="772.55" x2="1107.24" y2="772.55" style="stroke-width: 0.75;stroke: #0000FF; stroke-dasharray: 4.00, 4.00;"/>
</g><g clip-path="url(#c24)">
<g><text x="854.90" y="571.96" text-anchor="middle" style="font-family: Arial;font-size: 9.50px;" textLength="66.66px" lengthAdjust="spacingAndGlyphs">Series  series3</text></g>
</g>
</svg>