<svg xmlns="http://www.w3.org/2000/svg" xmlns:xlink="http://www.w3.org/1999/xlink" class="httpgd" width="1041.00" height="625.00" viewBox="0 0 1041.00 625.00">
<defs>
  <style type='text/css'><![CDATA[
    .httpgd line, .httpgd polyline, .httpgd polygon, .httpgd path, .httpgd rect, .httpgd circle {
      fill: none;
      stroke: #000000;
      stroke-linecap: round;
      stroke-linejoin: round;
      stroke-miterlimit: 10.00;
    }
  ]]></style>
<clipPath id="c0"><rect x="0.00" y="0.00" width="1041.00" height="625.00"/></clipPath>
<clipPath id="c1"><rect x="38.97" y="38.97" width="461.58" height="120.90"/></clipPath>
<clipPath id="c2"><rect x="0.00" y="0.00" width="520.50" height="208.33"/></clipPath>
<clipPath id="c3"><rect x="0.00" y="0.00" width="1041.00" height="625.00"/></clipPath>
<clipPath id="c4"><rect x="559.47" y="38.97" width="461.58" height="120.90"/></clipPath>
<clipPath id="c5"><rect x="0.00" y="0.00" width="1041.00" height="625.00"/></clipPath>
<clipPath id="c6"><rect x="520.50" y="0.00" width="520.50" height="208.33"/></clipPath>
<clipPath id="c7"><rect x="559.47" y="38.97" width="461.58" height="120.90"/></clipPath>
<clipPath id="c8"><rect x="520.50" y="0.00" width="520.50" height="208.33"/></clipPath>
<clipPath id="c9"><rect x="38.97" y="247.30" width="461.58" height="120.90"/></clipPath>
<clipPath id="c10"><rect x="0.00" y="208.33" width="520.50" height="208.33"/></clipPath>
<clipPath id="c11"><rect x="0.00" y="0.00" width="1041.00" height="625.00"/></clipPath>
<clipPath id="c12"><rect x="559.47" y="247.30" width="461.58" height="120.90"/></clipPath>
<clipPath id="c13"><rect x="0.00" y="0.00" width="1041.00" height="625.00"/></clipPath>
<clipPath id="c14"><rect x="520.50" y="208.33" width="520.50" height="208.33"/></clipPath>
<clipPath id="c15"><rect x="559.47" y="247.30" width="461.58" height="120.90"/></clipPath>
<clipPath id="c16"><rect x="520.50" y="208.33" width="520.50" height="208.33"/></clipPath>
<clipPath id="c17"><rect x="38.97" y="455.63" width="461.58" height="120.90"/></clipPath>
<clipPath id="c18"><rect x="0.00" y="416.67" width="520.50" height="208.33"/></clipPath>
<clipPath id="c19"><rect x="0.00" y="0.00" width="1041.00" height="625.00"/></clipPath>
<clipPath id="c20"><rect x="559.47" y="455.63" width="461.58" height="120.90"/></clipPath>
<clipPath id="c21"><rect x="0.00" y="0.00" width="1041.00" height="625.00"/></clipPath>
<clipPath id="c22"><rect x="520.50" y="416.67" width="520.50" height="208.33"/></clipPath>
<clipPath id="c23"><rect x="559.47" y="455.63" width="461.58" height="120.90"/></clipPath>
<clipPath id="c24"><rect x="520.50" y="416.67" width="520.50" height="208.33"/></clipPath>
</defs>
<rect width="100%" height="100%" style="stroke: none;fill: #FFFFFF;"/>
<g clip-path="url(#c0)">
</g><g clip-path="url(#c1)">
<polyline points="56.06,144.00 69.01,125.03 81.96,115.54 94.91,109.85 107.87,104.16 120.82,96.57 133.77,71.90 146.72,98.47 159.67,75.70 172.62,98.47 185.57,98.47 198.52,104.16 211.47,140.21 224.43,117.44 237.38,142.10 250.33,117.44 263.28,77.60 276.23,73.80 289.18,62.42 302.13,85.18 315.08,125.03 328.03,140.21 340.98,107.95 353.94,132.62 366.89,155.39 379.84,132.62 392.79,117.44 405.74,113.64 418.69,107.95 431.64,111.75 444.59,87.08 457.54,43.44 470.50,85.18 483.45,145.90" style="stroke-width: 0.75;stroke: #FF0000;"/>
</g><g clip-path="url(#c2)">
<g><text x="269.75" y="195.98" text-anchor="middle" style="font-family: Arial;font-size: 7.92px;" textLength="18.29px" lengthAdjust="spacingAndGlyphs">Time</text></g>
<g><text transform="translate(8.55,99.41) rotate(-90.00)" text-anchor="middle" style="font-family: Arial;font-size: 7.92px;" textLength="16.86px" lengthAdjust="spacingAndGlyphs">diff1</text></g>
</g><g clip-path="url(#c3)">
<line x1="107.87" y1="159.86" x2="496.40" y2="159.86" style="stroke-width: 0.75;"/>
<line x1="107.87" y1="159.86" x2="107.87" y2="164.61" style="stroke-width: 0.75;"/>
<line x1="185.57" y1="159.86" x2="185.57" y2="164.61" style="stroke-width: 0.75;"/>
<line x1="263.28" y1="159.86" x2="263.28" y2="164.61" style="stroke-width: 0.75;"/>
<line x1="340.98" y1="159.86" x2="340.98" y2="164.61" style="stroke-width: 0.75;"/>
<line x1="418.69" y1="159.86" x2="418.69" y2="164.61" style="stroke-width: 0.75;"/>
<line x1="496.40" y1="159.86" x2="496.40" y2="164.61" style="stroke-width: 0.75;"/>
<g><text x="107.87" y="176.97" text-anchor="middle" style="font-family: Arial;font-size: 7.92px;" textLength="24.72px" lengthAdjust="spacingAndGlyphs">2015.5</text></g>
<g><text x="185.57" y="176.97" text-anchor="middle" style="font-family: Arial;font-size: 7.92px;" textLength="24.72px" lengthAdjust="spacingAndGlyphs">2016.0</text></g>
<g><text x="263.28" y="176.97" text-anchor="middle" style="font-family: Arial;font-size: 7.92px;" textLength="24.72px" lengthAdjust="spacingAndGlyphs">2016.5</text></g>
<g><text x="340.98" y="176.97" text-anchor="middle" style="font-family: Arial;font-size: 7.92px;" textLength="24.72px" lengthAdjust="spacingAndGlyphs">2017.0</text></g>
<g><text x="418.69" y="176.97" text-anchor="middle" style="font-family: Arial;font-size: 7.92px;" textLength="24.72px" lengthAdjust="spacingAndGlyphs">2017.5</text></g>
<g><text x="496.40" y="176.97" text-anchor="middle" style="font-family: Arial;font-size: 7.92px;" textLength="24.72px" lengthAdjust="spacingAndGlyphs">2018.0</text></g>
<line x1="38.97" y1="153.49" x2="38.97" y2="39.65" style="stroke-width: 0.75;"/>
<line x1="38.97" y1="153.49" x2="34.21" y2="153.49" style="stroke-width: 0.75;"/>
<line x1="38.97" y1="134.51" x2="34.21" y2="134.51" style="stroke-width: 0.75;"/>
<line x1="38.97" y1="115.54" x2="34.21" y2="115.54" style="stroke-width: 0.75;"/>
<line x1="38.97" y1="96.57" x2="34.21" y2="96.57" style="stroke-width: 0.75;"/>
<line x1="38.97" y1="77.60" x2="34.21" y2="77.60" style="stroke-width: 0.75;"/>
<line x1="38.97" y1="58.62" x2="34.21" y2="58.62" style="stroke-width: 0.75;"/>
<line x1="38.97" y1="39.65" x2="34.21" y2="39.65" style="stroke-width: 0.75;"/>
<g><text transform="translate(27.56,153.49) rotate(-90.00)" text-anchor="middle" style="font-family: Arial;font-size: 7.92px;" textLength="7.07px" lengthAdjust="spacingAndGlyphs">-2</text></g>
<g><text transform="translate(27.56,134.51) rotate(-90.00)" text-anchor="middle" style="font-family: Arial;font-size: 7.92px;" textLength="7.07px" lengthAdjust="spacingAndGlyphs">-1</text></g>
<g><text transform="translate(27.56,115.54) rotate(-90.00)" text-anchor="middle" style="font-family: Arial;font-size: 7.92px;" textLength="4.52px" lengthAdjust="spacingAndGlyphs">0</text></g>
<g><text transform="translate(27.56,96.57) rotate(-90.00)" text-anchor="middle" style="font-family: Arial;font-size: 7.92px;" textLength="4.52px" lengthAdjust="spacingAndGlyphs">1</text></g>
<g><text transform="translate(27.56,77.60) rotate(-90.00)" text-anchor="middle" style="font-family: Arial;font-size: 7.92px;" textLength="4.52px" lengthAdjust="spacingAndGlyphs">2</text></g>
<g><text transform="translate(27.56,58.62) rotate(-90.00)" text-anchor="middle" style="font-family: Arial;font-size: 7.92px;" textLength="4.52px" lengthAdjust="spacingAndGlyphs">3</text></g>
<g><text transform="translate(27.56,39.65) rotate(-90.00)" text-anchor="middle" style="font-family: Arial;font-size: 7.92px;" textLength="4.52px" lengthAdjust="spacingAndGlyphs">4</text></g>
<polygon points="38.97,159.86 500.54,159.86 500.54,38.97 38.97,38.97" style="stroke-width: 0.75;" />
</g><g clip-path="url(#c4)">
<line x1="576.56" y1="121.04" x2="576.56" y2="43.44" style="stroke-width: 0.75;stroke: #0000FF;"/>
<line x1="605.05" y1="121.04" x2="605.05" y2="83.53" style="stroke-width: 0.75;stroke: #0000FF;"/>
<line x1="633.55" y1="121.04" x2="633.55" y2="114.22" style="stroke-width: 0.75;stroke: #0000FF;"/>
<line x1="662.04" y1="121.04" x2="662.04" y2="124.99" style="stroke-width: 0.75;stroke: #0000FF;"/>
<line x1="690.53" y1="121.04" x2="690.53" y2="139.08" style="stroke-width: 0.75;stroke: #0000FF;"/>
<line x1="719.02" y1="121.04" x2="719.02" y2="146.26" style="stroke-width: 0.75;stroke: #0000FF;"/>
<line x1="747.52" y1="121.04" x2="747.52" y2="155.39" style="stroke-width: 0.75;stroke: #0000FF;"/>
<line x1="776.01" y1="121.04" x2="776.01" y2="149.31" style="stroke-width: 0.75;stroke: #0000FF;"/>
<line x1="804.50" y1="121.04" x2="804.50" y2="136.21" style="stroke-width: 0.75;stroke: #0000FF;"/>
<line x1="832.99" y1="121.04" x2="832.99" y2="113.02" style="stroke-width: 0.75;stroke: #0000FF;"/>
<line x1="861.48" y1="121.04" x2="861.48" y2="112.74" style="stroke-width: 0.75;stroke: #0000FF;"/>
<line x1="889.98" y1="121.04" x2="889.98" y2="110.03" style="stroke-width: 0.75;stroke: #0000FF;"/>
<line x1="918.47" y1="121.04" x2="918.47" y2="93.08" style="stroke-width: 0.75;stroke: #0000FF;"/>
<line x1="946.96" y1="121.04" x2="946.96" y2="98.88" style="stroke-width: 0.75;stroke: #0000FF;"/>
<line x1="975.45" y1="121.04" x2="975.45" y2="110.16" style="stroke-width: 0.75;stroke: #0000FF;"/>
<line x1="1003.95" y1="121.04" x2="1003.95" y2="128.47" style="stroke-width: 0.75;stroke: #0000FF;"/>
</g><g clip-path="url(#c5)">
<line x1="576.56" y1="159.86" x2="986.85" y2="159.86" style="stroke-width: 0.75;"/>
<line x1="576.56" y1="159.86" x2="576.56" y2="164.61" style="stroke-width: 0.75;"/>
<line x1="644.94" y1="159.86" x2="644.94" y2="164.61" style="stroke-width: 0.75;"/>
<line x1="713.32" y1="159.86" x2="713.32" y2="164.61" style="stroke-width: 0.75;"/>
<line x1="781.71" y1="159.86" x2="781.71" y2="164.61" style="stroke-width: 0.75;"/>
<line x1="850.09" y1="159.86" x2="850.09" y2="164.61" style="stroke-width: 0.75;"/>
<line x1="918.47" y1="159.86" x2="918.47" y2="164.61" style="stroke-width: 0.75;"/>
<line x1="986.85" y1="159.86" x2="986.85" y2="164.61" style="stroke-width: 0.75;"/>
<g><text x="576.56" y="176.97" text-anchor="middle" style="font-family: Arial;font-size: 7.92px;" textLength="11.16px" lengthAdjust="spacingAndGlyphs">0.0</text></g>
<g><text x="644.94" y="176.97" text-anchor="middle" style="font-family: Arial;font-size: 7.92px;" textLength="11.16px" lengthAdjust="spacingAndGlyphs">0.2</text></g>
<g><text x="713.32" y="176.97" text-anchor="middle" style="font-family: Arial;font-size: 7.92px;" textLength="11.16px" lengthAdjust="spacingAndGlyphs">0.4</text></g>
<g><text x="781.71" y="176.97" text-anchor="middle" style="font-family: Arial;font-size: 7.92px;" textLength="11.16px" lengthAdjust="spacingAndGlyphs">0.6</text></g>
<g><text x="850.09" y="176.97" text-anchor="middle" style="font-family: Arial;font-size: 7.92px;" textLength="11.16px" lengthAdjust="spacingAndGlyphs">0.8</text></g>
<g><text x="918.47" y="176.97" text-anchor="middle" style="font-family: Arial;font-size: 7.92px;" textLength="11.16px" lengthAdjust="spacingAndGlyphs">1.0</text></g>
<g><text x="986.85" y="176.97" text-anchor="middle" style="font-family: Arial;font-size: 7.92px;" textLength="11.16px" lengthAdjust="spacingAndGlyphs">1.2</text></g>
<line x1="559.47" y1="159.83" x2="559.47" y2="43.44" style="stroke-width: 0.75;"/>
<line x1="559.47" y1="159.83" x2="554.71" y2="159.83" style="stroke-width: 0.75;"/>
<line x1="559.47" y1="121.04" x2="554.71" y2="121.04" style="stroke-width: 0.75;"/>
<line x1="559.47" y1="82.24" x2="554.71" y2="82.24" style="stroke-width: 0.75;"/>
<line x1="559.47" y1="43.44" x2="554.71" y2="43.44" style="stroke-width: 0.75;"/>
<g><text transform="translate(548.06,159.83) rotate(-90.00)" text-anchor="middle" style="font-family: Arial;font-size: 7.92px;" textLength="13.71px" lengthAdjust="spacingAndGlyphs">-0.5</text></g>
<g><text transform="translate(548.06,121.04) rotate(-90.00)" text-anchor="middle" style="font-family: Arial;font-size: 7.92px;" textLength="11.16px" lengthAdjust="spacingAndGlyphs">0.0</text></g>
<g><text transform="translate(548.06,82.24) rotate(-90.00)" text-anchor="middle" style="font-family: Arial;font-size: 7.92px;" textLength="11.16px" lengthAdjust="spacingAndGlyphs">0.5</text></g>
<g><text transform="translate(548.06,43.44) rotate(-90.00)" text-anchor="middle" style="font-family: Arial;font-size: 7.92px;" textLength="11.16px" lengthAdjust="spacingAndGlyphs">1.0</text></g>
<polygon points="559.47,159.86 1021.04,159.86 1021.04,38.97 559.47,38.97" style="stroke-width: 0.75;" />
</g><g clip-path="url(#c6)">
<g><text x="790.25" y="195.98" text-anchor="middle" style="font-family: Arial;font-size: 7.92px;" textLength="13.44px" lengthAdjust="spacingAndGlyphs">Lag</text></g>
<g><text transform="translate(529.05,99.41) rotate(-90.00)" text-anchor="middle" style="font-family: Arial;font-size: 7.92px;" textLength="14.16px" lengthAdjust="spacingAndGlyphs">ACF</text></g>
</g><g clip-path="url(#c7)">
<line x1="559.47" y1="121.04" x2="1021.04" y2="121.04" style="stroke-width: 0.75;"/>
<line x1="559.47" y1="94.96" x2="1021.04" y2="94.96" style="stroke-width: 0.75;stroke: #0000FF; stroke-dasharray: 4.00, 4.00;"/>
<line x1="559.47" y1="147.12" x2="1021.04" y2="147.12" style="stroke-width: 0.75;stroke: #0000FF; stroke-dasharray: 4.00, 4.00;"/>
</g><g clip-path="url(#c8)">
<g><text x="790.25" y="19.96" text-anchor="middle" style="font-family: Arial;font-size: 9.50px;" textLength="55.04px" lengthAdjust="spacingAndGlyphs">Series  diff1</text></g>
</g><g clip-path="url(#c9)">
<polyline points="56.06,319.92 69.01,290.71 81.96,271.25 94.91,300.45 107.87,310.18 120.82,305.31 133.77,300.45 146.72,315.05 159.67,305.31 172.62,339.38 185.57,310.18 198.52,290.71 211.47,310.18 224.43,295.58 237.38,310.18 250.33,363.72 263.28,334.52 276.23,310.18 289.18,300.45 302.13,324.78 315.08,319.92 328.03,305.31 340.98,319.92 353.94,295.58 366.89,251.78 379.84,319.92 392.79,276.11 405.74,271.25 418.69,295.58 431.64,349.12 444.59,358.85 457.54,300.45 470.50,310.18 483.45,271.25" style="stroke-width: 0.75;stroke: #FF0000;"/>
</g><g clip-path="url(#c10)">
<g><text x="269.75" y="404.31" text-anchor="middle" style="font-family: Arial;font-size: 7.92px;" textLength="18.29px" lengthAdjust="spacingAndGlyphs">Time</text></g>
<g><text transform="translate(8.55,307.75) rotate(-90.00)" text-anchor="middle" style="font-family: Arial;font-size: 7.92px;" textLength="16.86px" lengthAdjust="spacingAndGlyphs">diff2</text></g>
</g><g clip-path="url(#c11)">
<line x1="107.87" y1="368.20" x2="496.40" y2="368.20" style="stroke-width: 0.75;"/>
<line x1="107.87" y1="368.20" x2="107.87" y2="372.95" style="stroke-width: 0.75;"/>
<line x1="185.57" y1="368.20" x2="185.57" y2="372.95" style="stroke-width: 0.75;"/>
<line x1="263.28" y1="368.20" x2="263.28" y2="372.95" style="stroke-width: 0.75;"/>
<line x1="340.98" y1="368.20" x2="340.98" y2="372.95" style="stroke-width: 0.75;"/>
<line x1="418.69" y1="368.20" x2="418.69" y2="372.95" style="stroke-width: 0.75;"/>
<line x1="496.40" y1="368.20" x2="496.40" y2="372.95" style="stroke-width: 0.75;"/>
<g><text x="107.87" y="385.30" text-anchor="middle" style="font-family: Arial;font-size: 7.92px;" textLength="24.72px" lengthAdjust="spacingAndGlyphs">2015.5</text></g>
<g><text x="185.57" y="385.30" text-anchor="middle" style="font-family: Arial;font-size: 7.92px;" textLength="24.72px" lengthAdjust="spacingAndGlyphs">2016.0</text></g>
<g><text x="263.28" y="385.30" text-anchor="middle" style="font-family: Arial;font-size: 7.92px;" textLength="24.72px" lengthAdjust="spacingAndGlyphs">2016.5</text></g>
<g><text x="340.98" y="385.30" text-anchor="middle" style="font-family: Arial;font-size: 7.92px;" textLength="24.72px" lengthAdjust="spacingAndGlyphs">2017.0</text></g>
<g><text x="418.69" y="385.30" text-anchor="middle" style="font-family: Arial;font-size: 7.92px;" textLength="24.72px" lengthAdjust="spacingAndGlyphs">2017.5</text></g>
<g><text x="496.40" y="385.30" text-anchor="middle" style="font-family: Arial;font-size: 7.92px;" textLength="24.72px" lengthAdjust="spacingAndGlyphs">2018.0</text></g>
<line x1="38.97" y1="353.98" x2="38.97" y2="256.64" style="stroke-width: 0.75;"/>
<line x1="38.97" y1="353.98" x2="34.21" y2="353.98" style="stroke-width: 0.75;"/>
<line x1="38.97" y1="329.65" x2="34.21" y2="329.65" style="stroke-width: 0.75;"/>
<line x1="38.97" y1="305.31" x2="34.21" y2="305.31" style="stroke-width: 0.75;"/>
<line x1="38.97" y1="280.98" x2="34.21" y2="280.98" style="stroke-width: 0.75;"/>
<line x1="38.97" y1="256.64" x2="34.21" y2="256.64" style="stroke-width: 0.75;"/>
<g><text transform="translate(27.56,353.98) rotate(-90.00)" text-anchor="middle" style="font-family: Arial;font-size: 7.92px;" textLength="13.71px" lengthAdjust="spacingAndGlyphs">-0.5</text></g>
<g><text transform="translate(27.56,329.65) rotate(-90.00)" text-anchor="middle" style="font-family: Arial;font-size: 7.92px;" textLength="11.16px" lengthAdjust="spacingAndGlyphs">0.0</text></g>
<g><text transform="translate(27.56,305.31) rotate(-90.00)" text-anchor="middle" style="font-family: Arial;font-size: 7.92px;" textLength="11.16px" lengthAdjust="spacingAndGlyphs">0.5</text></g>
<g><text transform="translate(27.56,280.98) rotate(-90.00)" text-anchor="middle" style="font-family: Arial;font-size: 7.92px;" textLength="11.16px" lengthAdjust="spacingAndGlyphs">1.0</text></g>
<g><text transform="translate(27.56,256.64) rotate(-90.00)" text-anchor="middle" style="font-family: Arial;font-size: 7.92px;" textLength="11.16px" lengthAdjust="spacingAndGlyphs">1.5</text></g>
<polygon points="38.97,368.20 500.54,368.20 500.54,247.30 38.97,247.30" style="stroke-width: 0.75;" />
</g><g clip-path="url(#c12)">
<line x1="576.56" y1="335.56" x2="576.56" y2="251.78" style="stroke-width: 0.75;stroke: #0000FF;"/>
<line x1="605.05" y1="335.56" x2="605.05" y2="316.82" style="stroke-width: 0.75;stroke: #0000FF;"/>
<line x1="633.55" y1="335.56" x2="633.55" y2="345.18" style="stroke-width: 0.75;stroke: #0000FF;"/>
<line x1="662.04" y1="335.56" x2="662.04" y2="345.96" style="stroke-width: 0.75;stroke: #0000FF;"/>
<line x1="690.53" y1="335.56" x2="690.53" y2="346.85" style="stroke-width: 0.75;stroke: #0000FF;"/>
<line x1="719.02" y1="335.56" x2="719.02" y2="341.65" style="stroke-width: 0.75;stroke: #0000FF;"/>
<line x1="747.52" y1="335.56" x2="747.52" y2="338.51" style="stroke-width: 0.75;stroke: #0000FF;"/>
<line x1="776.01" y1="335.56" x2="776.01" y2="333.80" style="stroke-width: 0.75;stroke: #0000FF;"/>
<line x1="804.50" y1="335.56" x2="804.50" y2="348.23" style="stroke-width: 0.75;stroke: #0000FF;"/>
<line x1="832.99" y1="335.56" x2="832.99" y2="337.24" style="stroke-width: 0.75;stroke: #0000FF;"/>
<line x1="861.48" y1="335.56" x2="861.48" y2="325.45" style="stroke-width: 0.75;stroke: #0000FF;"/>
<line x1="889.98" y1="335.56" x2="889.98" y2="342.99" style="stroke-width: 0.75;stroke: #0000FF;"/>
<line x1="918.47" y1="335.56" x2="918.47" y2="347.89" style="stroke-width: 0.75;stroke: #0000FF;"/>
<line x1="946.96" y1="335.56" x2="946.96" y2="338.01" style="stroke-width: 0.75;stroke: #0000FF;"/>
<line x1="975.45" y1="335.56" x2="975.45" y2="333.21" style="stroke-width: 0.75;stroke: #0000FF;"/>
<line x1="1003.95" y1="335.56" x2="1003.95" y2="325.89" style="stroke-width: 0.75;stroke: #0000FF;"/>
</g><g clip-path="url(#c13)">
<line x1="576.56" y1="368.20" x2="986.85" y2="368.20" style="stroke-width: 0.75;"/>
<line x1="576.56" y1="368.20" x2="576.56" y2="372.95" style="stroke-width: 0.75;"/>
<line x1="644.94" y1="368.20" x2="644.94" y2="372.95" style="stroke-width: 0.75;"/>
<line x1="713.32" y1="368.20" x2="713.32" y2="372.95" style="stroke-width: 0.75;"/>
<line x1="781.71" y1="368.20" x2="781.71" y2="372.95" style="stroke-width: 0.75;"/>
<line x1="850.09" y1="368.20" x2="850.09" y2="372.95" style="stroke-width: 0.75;"/>
<line x1="918.47" y1="368.20" x2="918.47" y2="372.95" style="stroke-width: 0.75;"/>
<line x1="986.85" y1="368.20" x2="986.85" y2="372.95" style="stroke-width: 0.75;"/>
<g><text x="576.56" y="385.30" text-anchor="middle" style="font-family: Arial;font-size: 7.92px;" textLength="11.16px" lengthAdjust="spacingAndGlyphs">0.0</text></g>
<g><text x="644.94" y="385.30" text-anchor="middle" style="font-family: Arial;font-size: 7.92px;" textLength="11.16px" lengthAdjust="spacingAndGlyphs">0.2</text></g>
<g><text x="713.32" y="385.30" text-anchor="middle" style="font-family: Arial;font-size: 7.92px;" textLength="11.16px" lengthAdjust="spacingAndGlyphs">0.4</text></g>
<g><text x="781.71" y="385.30" text-anchor="middle" style="font-family: Arial;font-size: 7.92px;" textLength="11.16px" lengthAdjust="spacingAndGlyphs">0.6</text></g>
<g><text x="850.09" y="385.30" text-anchor="middle" style="font-family: Arial;font-size: 7.92px;" textLength="11.16px" lengthAdjust="spacingAndGlyphs">0.8</text></g>
<g><text x="918.47" y="385.30" text-anchor="middle" style="font-family: Arial;font-size: 7.92px;" textLength="11.16px" lengthAdjust="spacingAndGlyphs">1.0</text></g>
<g><text x="986.85" y="385.30" text-anchor="middle" style="font-family: Arial;font-size: 7.92px;" textLength="11.16px" lengthAdjust="spacingAndGlyphs">1.2</text></g>
<line x1="559.47" y1="352.31" x2="559.47" y2="251.78" style="stroke-width: 0.75;"/>
<line x1="559.47" y1="352.31" x2="554.71" y2="352.31" style="stroke-width: 0.75;"/>
<line x1="559.47" y1="335.56" x2="554.71" y2="335.56" style="stroke-width: 0.75;"/>
<line x1="559.47" y1="318.80" x2="554.71" y2="318.80" style="stroke-width: 0.75;"/>
<line x1="559.47" y1="302.05" x2="554.71" y2="302.05" style="stroke-width: 0.75;"/>
<line x1="559.47" y1="285.29" x2="554.71" y2="285.29" style="stroke-width: 0.75;"/>
<line x1="559.47" y1="268.53" x2="554.71" y2="268.53" style="stroke-width: 0.75;"/>
<line x1="559.47" y1="251.78" x2="554.71" y2="251.78" style="stroke-width: 0.75;"/>
<g><text transform="translate(548.06,352.31) rotate(-90.00)" text-anchor="middle" style="font-family: Arial;font-size: 7.92px;" textLength="13.71px" lengthAdjust="spacingAndGlyphs">-0.2</text></g>
<g><text transform="translate(548.06,318.80) rotate(-90.00)" text-anchor="middle" style="font-family: Arial;font-size: 7.92px;" textLength="11.16px" lengthAdjust="spacingAndGlyphs">0.2</text></g>
<g><text transform="translate(548.06,285.29) rotate(-90.00)" text-anchor="middle" style="font-family: Arial;font-size: 7.92px;" textLength="11.16px" lengthAdjust="spacingAndGlyphs">0.6</text></g>
<g><text transform="translate(548.06,251.78) rotate(-90.00)" text-anchor="middle" style="font-family: Arial;font-size: 7.92px;" textLength="11.16px" lengthAdjust="spacingAndGlyphs">1.0</text></g>
<polygon points="559.47,368.20 1021.04,368.20 1021.04,247.30 559.47,247.30" style="stroke-width: 0.75;" />
</g><g clip-path="url(#c14)">
<g><text x="790.25" y="404.31" text-anchor="middle" style="font-family: Arial;font-size: 7.92px;" textLength="13.44px" lengthAdjust="spacingAndGlyphs">Lag</text></g>
<g><text transform="translate(529.05,307.75) rotate(-90.00)" text-anchor="middle" style="font-family: Arial;font-size: 7.92px;" textLength="14.16px" lengthAdjust="spacingAndGlyphs">ACF</text></g>
</g><g clip-path="url(#c15)">
<line x1="559.47" y1="335.56" x2="1021.04" y2="335.56" style="stroke-width: 0.75;"/>
<line x1="559.47" y1="307.40" x2="1021.04" y2="307.40" style="stroke-width: 0.75;stroke: #0000FF; stroke-dasharray: 4.00, 4.00;"/>
<line x1="559.47" y1="363.72" x2="1021.04" y2="363.72" style="stroke-width: 0.75;stroke: #0000FF; stroke-dasharray: 4.00, 4.00;"/>
</g><g clip-path="url(#c16)">
<g><text x="790.25" y="228.29" text-anchor="middle" style="font-family: Arial;font-size: 9.50px;" textLength="55.04px" lengthAdjust="spacingAndGlyphs">Series  diff2</text></g>
</g><g clip-path="url(#c17)">
<polyline points="56.06,572.05 69.01,549.66 81.96,560.86 94.91,504.89 107.87,527.28 120.82,460.11 133.77,471.30 146.72,549.66 159.67,572.05 172.62,538.47 185.57,527.28 198.52,549.66 211.47,549.66 224.43,549.66 237.38,504.89 250.33,549.66 263.28,493.69 276.23,493.69 289.18,482.50 302.13,527.28 315.08,549.66 328.03,493.69 340.98,504.89 353.94,527.28 366.89,560.86 379.84,516.08 392.79,527.28 405.74,538.47 418.69,572.05 431.64,549.66 444.59,549.66 457.54,527.28 470.50,471.30 483.45,493.69" style="stroke-width: 0.75;stroke: #FF0000;"/>
</g><g clip-path="url(#c18)">
<g><text x="269.75" y="612.64" text-anchor="middle" style="font-family: Arial;font-size: 7.92px;" textLength="18.29px" lengthAdjust="spacingAndGlyphs">Time</text></g>
<g><text transform="translate(8.55,516.08) rotate(-90.00)" text-anchor="middle" style="font-family: Arial;font-size: 7.92px;" textLength="16.86px" lengthAdjust="spacingAndGlyphs">diff3</text></g>
</g><g clip-path="url(#c19)">
<line x1="107.87" y1="576.53" x2="496.40" y2="576.53" style="stroke-width: 0.75;"/>
<line x1="107.87" y1="576.53" x2="107.87" y2="581.28" style="stroke-width: 0.75;"/>
<line x1="185.57" y1="576.53" x2="185.57" y2="581.28" style="stroke-width: 0.75;"/>
<line x1="263.28" y1="576.53" x2="263.28" y2="581.28" style="stroke-width: 0.75;"/>
<line x1="340.98" y1="576.53" x2="340.98" y2="581.28" style="stroke-width: 0.75;"/>
<line x1="418.69" y1="576.53" x2="418.69" y2="581.28" style="stroke-width: 0.75;"/>
<line x1="496.40" y1="576.53" x2="496.40" y2="581.28" style="stroke-width: 0.75;"/>
<g><text x="107.87" y="593.64" text-anchor="middle" style="font-family: Arial;font-size: 7.92px;" textLength="24.72px" lengthAdjust="spacingAndGlyphs">2015.5</text></g>
<g><text x="185.57" y="593.64" text-anchor="middle" style="font-family: Arial;font-size: 7.92px;" textLength="24.72px" lengthAdjust="spacingAndGlyphs">2016.0</text></g>
<g><text x="263.28" y="593.64" text-anchor="middle" style="font-family: Arial;font-size: 7.92px;" textLength="24.72px" lengthAdjust="spacingAndGlyphs">2016.5</text></g>
<g><text x="340.98" y="593.64" text-anchor="middle" style="font-family: Arial;font-size: 7.92px;" textLength="24.72px" lengthAdjust="spacingAndGlyphs">2017.0</text></g>
<g><text x="418.69" y="593.64" text-anchor="middle" style="font-family: Arial;font-size: 7.92px;" textLength="24.72px" lengthAdjust="spacingAndGlyphs">2017.5</text></g>
<g><text x="496.40" y="593.64" text-anchor="middle" style="font-family: Arial;font-size: 7.92px;" textLength="24.72px" lengthAdjust="spacingAndGlyphs">2018.0</text></g>
<line x1="38.97" y1="572.05" x2="38.97" y2="460.11" style="stroke-width: 0.75;"/>
<line x1="38.97" y1="572.05" x2="34.21" y2="572.05" style="stroke-width: 0.75;"/>
<line x1="38.97" y1="549.66" x2="34.21" y2="549.66" style="stroke-width: 0.75;"/>
<line x1="38.97" y1="527.28" x2="34.21" y2="527.28" style="stroke-width: 0.75;"/>
<line x1="38.97" y1="504.89" x2="34.21" y2="504.89" style="stroke-width: 0.75;"/>
<line x1="38.97" y1="482.50" x2="34.21" y2="482.50" style="stroke-width: 0.75;"/>
<line x1="38.97" y1="460.11" x2="34.21" y2="460.11" style="stroke-width: 0.75;"/>
<g><text transform="translate(27.56,572.05) rotate(-90.00)" text-anchor="middle" style="font-family: Arial;font-size: 7.92px;" textLength="11.16px" lengthAdjust="spacingAndGlyphs">0.0</text></g>
<g><text transform="translate(27.56,549.66) rotate(-90.00)" text-anchor="middle" style="font-family: Arial;font-size: 7.92px;" textLength="11.16px" lengthAdjust="spacingAndGlyphs">0.2</text></g>
<g><text transform="translate(27.56,527.28) rotate(-90.00)" text-anchor="middle" style="font-family: Arial;font-size: 7.92px;" textLength="11.16px" lengthAdjust="spacingAndGlyphs">0.4</text></g>
<g><text transform="translate(27.56,504.89) rotate(-90.00)" text-anchor="middle" style="font-family: Arial;font-size: 7.92px;" textLength="11.16px" lengthAdjust="spacingAndGlyphs">0.6</text></g>
<g><text transform="translate(27.56,482.50) rotate(-90.00)" text-anchor="middle" style="font-family: Arial;font-size: 7.92px;" textLength="11.16px" lengthAdjust="spacingAndGlyphs">0.8</text></g>
<g><text transform="translate(27.56,460.11) rotate(-90.00)" text-anchor="middle" style="font-family: Arial;font-size: 7.92px;" textLength="11.16px" lengthAdjust="spacingAndGlyphs">1.0</text></g>
<polygon points="38.97,576.53 500.54,576.53 500.54,455.63 38.97,455.63" style="stroke-width: 0.75;" />
</g><g clip-path="url(#c20)">
<line x1="576.56" y1="543.89" x2="576.56" y2="460.11" style="stroke-width: 0.75;stroke: #0000FF;"/>
<line x1="605.05" y1="543.89" x2="605.05" y2="516.64" style="stroke-width: 0.75;stroke: #0000FF;"/>
<line x1="633.55" y1="543.89" x2="633.55" y2="547.50" style="stroke-width: 0.75;stroke: #0000FF;"/>
<line x1="662.04" y1="543.89" x2="662.04" y2="563.30" style="stroke-width: 0.75;stroke: #0000FF;"/>
<line x1="690.53" y1="543.89" x2="690.53" y2="550.15" style="stroke-width: 0.75;stroke: #0000FF;"/>
<line x1="719.02" y1="543.89" x2="719.02" y2="561.67" style="stroke-width: 0.75;stroke: #0000FF;"/>
<line x1="747.52" y1="543.89" x2="747.52" y2="566.26" style="stroke-width: 0.75;stroke: #0000FF;"/>
<line x1="776.01" y1="543.89" x2="776.01" y2="549.79" style="stroke-width: 0.75;stroke: #0000FF;"/>
<line x1="804.50" y1="543.89" x2="804.50" y2="549.48" style="stroke-width: 0.75;stroke: #0000FF;"/>
<line x1="832.99" y1="543.89" x2="832.99" y2="552.47" style="stroke-width: 0.75;stroke: #0000FF;"/>
<line x1="861.48" y1="543.89" x2="861.48" y2="555.79" style="stroke-width: 0.75;stroke: #0000FF;"/>
<line x1="889.98" y1="543.89" x2="889.98" y2="527.20" style="stroke-width: 0.75;stroke: #0000FF;"/>
<line x1="918.47" y1="543.89" x2="918.47" y2="536.08" style="stroke-width: 0.75;stroke: #0000FF;"/>
<line x1="946.96" y1="543.89" x2="946.96" y2="536.72" style="stroke-width: 0.75;stroke: #0000FF;"/>
<line x1="975.45" y1="543.89" x2="975.45" y2="550.89" style="stroke-width: 0.75;stroke: #0000FF;"/>
<line x1="1003.95" y1="543.89" x2="1003.95" y2="530.83" style="stroke-width: 0.75;stroke: #0000FF;"/>
</g><g clip-path="url(#c21)">
<line x1="576.56" y1="576.53" x2="986.85" y2="576.53" style="stroke-width: 0.75;"/>
<line x1="576.56" y1="576.53" x2="576.56" y2="581.28" style="stroke-width: 0.75;"/>
<line x1="644.94" y1="576.53" x2="644.94" y2="581.28" style="stroke-width: 0.75;"/>
<line x1="713.32" y1="576.53" x2="713.32" y2="581.28" style="stroke-width: 0.75;"/>
<line x1="781.71" y1="576.53" x2="781.71" y2="581.28" style="stroke-width: 0.75;"/>
<line x1="850.09" y1="576.53" x2="850.09" y2="581.28" style="stroke-width: 0.75;"/>
<line x1="918.47" y1="576.53" x2="918.47" y2="581.28" style="stroke-width: 0.75;"/>
<line x1="986.85" y1="576.53" x2="986.85" y2="581.28" style="stroke-width: 0.75;"/>
<g><text x="576.56" y="593.64" text-anchor="middle" style="font-family: Arial;font-size: 7.92px;" textLength="11.16px" lengthAdjust="spacingAndGlyphs">0.0</text></g>
<g><text x="644.94" y="593.64" text-anchor="middle" style="font-family: Arial;font-size: 7.92px;" textLength="11.16px" lengthAdjust="spacingAndGlyphs">0.2</text></g>
<g><text x="713.32" y="593.64" text-anchor="middle" style="font-family: Arial;font-size: 7.92px;" textLength="11.16px" lengthAdjust="spacingAndGlyphs">0.4</text></g>
<g><text x="781.71" y="593.64" text-anchor="middle" style="font-family: Arial;font-size: 7.92px;" textLength="11.16px" lengthAdjust="spacingAndGlyphs">0.6</text></g>
<g><text x="850.09" y="593.64" text-anchor="middle" style="font-family: Arial;font-size: 7.92px;" textLength="11.16px" lengthAdjust="spacingAndGlyphs">0.8</text></g>
<g><text x="918.47" y="593.64" text-anchor="middle" style="font-family: Arial;font-size: 7.92px;" textLength="11.16px" lengthAdjust="spacingAndGlyphs">1.0</text></g>
<g><text x="986.85" y="593.64" text-anchor="middle" style="font-family: Arial;font-size: 7.92px;" textLength="11.16px" lengthAdjust="spacingAndGlyphs">1.2</text></g>
<line x1="559.47" y1="560.65" x2="559.47" y2="460.11" style="stroke-width: 0.75;"/>
<line x1="559.47" y1="560.65" x2="554.71" y2="560.65" style="stroke-width: 0.75;"/>
<line x1="559.47" y1="543.89" x2="554.71" y2="543.89" style="stroke-width: 0.75;"/>
<line x1="559.47" y1="527.13" x2="554.71" y2="527.13" style="stroke-width: 0.75;"/>
<line x1="559.47" y1="510.38" x2="554.71" y2="510.38" style="stroke-width: 0.75;"/>
<line x1="559.47" y1="493.62" x2="554.71" y2="493.62" style="stroke-width: 0.75;"/>
<line x1="559.47" y1="476.87" x2="554.71" y2="476.87" style="stroke-width: 0.75;"/>
<line x1="559.47" y1="460.11" x2="554.71" y2="460.11" style="stroke-width: 0.75;"/>
<g><text transform="translate(548.06,560.65) rotate(-90.00)" text-anchor="middle" style="font-family: Arial;font-size: 7.92px;" textLength="13.71px" lengthAdjust="spacingAndGlyphs">-0.2</text></g>
<g><text transform="translate(548.06,527.13) rotate(-90.00)" text-anchor="middle" style="font-family: Arial;font-size: 7.92px;" textLength="11.16px" lengthAdjust="spacingAndGlyphs">0.2</text></g>
<g><text transform="translate(548.06,493.62) rotate(-90.00)" text-anchor="middle" style="font-family: Arial;font-size: 7.92px;" textLength="11.16px" lengthAdjust="spacingAndGlyphs">0.6</text></g>
<g><text transform="translate(548.06,460.11) rotate(-90.00)" text-anchor="middle" style="font-family: Arial;font-size: 7.92px;" textLength="11.16px" lengthAdjust="spacingAndGlyphs">1.0</text></g>
<polygon points="559.47,576.53 1021.04,576.53 1021.04,455.63 559.47,455.63" style="stroke-width: 0.75;" />
</g><g clip-path="url(#c22)">
<g><text x="790.25" y="612.64" text-anchor="middle" style="font-family: Arial;font-size: 7.92px;" textLength="13.44px" lengthAdjust="spacingAndGlyphs">Lag</text></g>
<g><text transform="translate(529.05,516.08) rotate(-90.00)" text-anchor="middle" style="font-family: Arial;font-size: 7.92px;" textLength="14.16px" lengthAdjust="spacingAndGlyphs">ACF</text></g>
</g><g clip-path="url(#c23)">
<line x1="559.47" y1="543.89" x2="1021.04" y2="543.89" style="stroke-width: 0.75;"/>
<line x1="559.47" y1="515.73" x2="1021.04" y2="515.73" style="stroke-width: 0.75;stroke: #0000FF; stroke-dasharray: 4.00, 4.00;"/>
<line x1="559.47" y1="572.05" x2="1021.04" y2="572.05" style="stroke-width: 0.75;stroke: #0000FF; stroke-dasharray: 4.00, 4.00;"/>
</g><g clip-path="url(#c24)">
<g><text x="790.25" y="436.63" text-anchor="middle" style="font-family: Arial;font-size: 9.50px;" textLength="55.04px" lengthAdjust="spacingAndGlyphs">Series  diff3</text></g>
</g>
</svg>